<svg xmlns="http://www.w3.org/2000/svg" xmlns:xlink="http://www.w3.org/1999/xlink" contentStyleType="text/css" height="674.1px" preserveAspectRatio="none" style="width:249px;height:674px;background:#FFFFFF;" version="1.1" viewBox="0 0 249 674" width="249.9px" zoomAndPan="magnify"><defs/><g><line style="stroke:#181818;stroke-width:0.3499999999999999;stroke-dasharray:5.0,5.0;" x1="25.5572" x2="25.5572" y1="27.0348" y2="647.4275"/><line style="stroke:#181818;stroke-width:0.3499999999999999;stroke-dasharray:5.0,5.0;" x1="125.7857" x2="125.7857" y1="27.0348" y2="647.4275"/><line style="stroke:#181818;stroke-width:0.3499999999999999;stroke-dasharray:5.0,5.0;" x1="223.4771" x2="223.4771" y1="27.0348" y2="647.4275"/><rect fill="#E2E2F0" height="22.8348" rx="1.75" ry="1.75" style="stroke:#181818;stroke-width:0.3499999999999999;" width="44.1144" x="3.5" y="3.5"/><text fill="#000000" font-family="sans-serif" font-size="9.8" lengthAdjust="spacing" textLength="34.3144" x="8.4" y="18.9752">Client A</text><rect fill="#E2E2F0" height="22.8348" rx="1.75" ry="1.75" style="stroke:#181818;stroke-width:0.3499999999999999;" width="38.6641" x="106.4537" y="3.5"/><text fill="#000000" font-family="sans-serif" font-size="9.8" lengthAdjust="spacing" textLength="28.8641" x="111.3537" y="18.9752">Server</text><rect fill="#E2E2F0" height="22.8348" rx="1.75" ry="1.75" style="stroke:#181818;stroke-width:0.3499999999999999;" width="44.1144" x="201.4199" y="3.5"/><text fill="#000000" font-family="sans-serif" font-size="9.8" lengthAdjust="spacing" textLength="34.3144" x="206.3199" y="18.9752">Client B</text><rect fill="#E2E2F0" height="22.8348" rx="1.75" ry="1.75" style="stroke:#181818;stroke-width:0.3499999999999999;" width="44.1144" x="3.5" y="647.4275"/><text fill="#000000" font-family="sans-serif" font-size="9.8" lengthAdjust="spacing" textLength="34.3144" x="8.4" y="662.9027">Client A</text><rect fill="#E2E2F0" height="22.8348" rx="1.75" ry="1.75" style="stroke:#181818;stroke-width:0.3499999999999999;" width="38.6641" x="106.4537" y="647.4275"/><text fill="#000000" font-family="sans-serif" font-size="9.8" lengthAdjust="spacing" textLength="28.8641" x="111.3537" y="662.9027">Server</text><rect fill="#E2E2F0" height="22.8348" rx="1.75" ry="1.75" style="stroke:#181818;stroke-width:0.3499999999999999;" width="44.1144" x="201.4199" y="647.4275"/><text fill="#000000" font-family="sans-serif" font-size="9.8" lengthAdjust="spacing" textLength="34.3144" x="206.3199" y="662.9027">Client B</text><rect fill="#EEEEEE" height="2.1" style="stroke:#EEEEEE;stroke-width:0.6999999999999998;" width="242.0342" x="3.5" y="47.7866"/><line style="stroke:#000000;stroke-width:0.6999999999999998;" x1="3.5" x2="245.5342" y1="47.7866" y2="47.7866"/><line style="stroke:#000000;stroke-width:0.6999999999999998;" x1="3.5" x2="245.5342" y1="49.8866" y2="49.8866"/><rect fill="#EEEEEE" height="17.7037" style="stroke:#000000;stroke-width:1.3999999999999997;" width="92.7264" x="78.1539" y="39.6348"/><text fill="#000000" font-family="sans-serif" font-size="9.1" font-weight="bold" lengthAdjust="spacing" textLength="80.3981" x="82.3539" y="52.2546">Game Initialization</text><polygon fill="#181818" points="33.2572,77.8422,26.2572,80.6422,33.2572,83.4422,30.4572,80.6422" style="stroke:#181818;stroke-width:0.6999999999999998;"/><line style="stroke:#181818;stroke-width:0.6999999999999998;" x1="29.0572" x2="125.0857" y1="80.6422" y2="80.6422"/><text fill="#000000" font-family="sans-serif" font-size="9.1" lengthAdjust="spacing" textLength="58.1502" x="37.4572" y="76.9583">GAMEREADY</text><polygon fill="#181818" points="215.0771,77.8422,222.0771,80.6422,215.0771,83.4422,217.8771,80.6422" style="stroke:#181818;stroke-width:0.6999999999999998;"/><line style="stroke:#181818;stroke-width:0.6999999999999998;" x1="125.7857" x2="219.2771" y1="80.6422" y2="80.6422"/><text fill="#000000" font-family="sans-serif" font-size="9.1" lengthAdjust="spacing" textLength="58.1502" x="130.6857" y="76.9583">GAMEREADY</text><polygon fill="#181818" points="117.3857,99.7459,124.3857,102.5459,117.3857,105.3459,120.1857,102.5459" style="stroke:#181818;stroke-width:0.6999999999999998;"/><line style="stroke:#181818;stroke-width:0.6999999999999998;" x1="25.5572" x2="121.5857" y1="102.5459" y2="102.5459"/><text fill="#000000" font-family="sans-serif" font-size="9.1" lengthAdjust="spacing" textLength="70.5517" x="30.4572" y="98.862">INIT_GRID=1 2 5</text><polygon fill="#181818" points="133.4857,121.6496,126.4857,124.4496,133.4857,127.2496,130.6857,124.4496" style="stroke:#181818;stroke-width:0.6999999999999998;"/><line style="stroke:#181818;stroke-width:0.6999999999999998;" x1="129.2857" x2="222.7771" y1="124.4496" y2="124.4496"/><text fill="#000000" font-family="sans-serif" font-size="9.1" lengthAdjust="spacing" textLength="70.5517" x="137.6857" y="120.7657">INIT_GRID=3 4 6</text><rect fill="#EEEEEE" height="2.1" style="stroke:#EEEEEE;stroke-width:0.6999999999999998;" width="242.0342" x="3.5" y="145.2015"/><line style="stroke:#000000;stroke-width:0.6999999999999998;" x1="3.5" x2="245.5342" y1="145.2015" y2="145.2015"/><line style="stroke:#000000;stroke-width:0.6999999999999998;" x1="3.5" x2="245.5342" y1="147.3015" y2="147.3015"/><rect fill="#EEEEEE" height="17.7037" style="stroke:#000000;stroke-width:1.3999999999999997;" width="55.8288" x="96.6027" y="137.0496"/><text fill="#000000" font-family="sans-serif" font-size="9.1" font-weight="bold" lengthAdjust="spacing" textLength="43.5005" x="100.8027" y="149.6694">Gameplay</text><path d="M8.3626,165.2533 L8.3626,184.1533 L142.7626,184.1533 L142.7626,172.2533 L135.7626,165.2533 L8.3626,165.2533 " fill="#FEFFDD" style="stroke:#181818;stroke-width:0.3499999999999999;"/><path d="M135.7626,165.2533 L135.7626,172.2533 L142.7626,172.2533 L135.7626,165.2533 " fill="#FEFFDD" style="stroke:#181818;stroke-width:0.3499999999999999;"/><text fill="#000000" font-family="sans-serif" font-size="9.1" lengthAdjust="spacing" textLength="116.3405" x="14.3512" y="178.5731">Client A proceeds to attack 3</text><path d="M109.1111,191.357 L109.1111,210.257 L240.0111,210.257 L240.0111,198.357 L233.0111,191.357 L109.1111,191.357 " fill="#FEFFDD" style="stroke:#181818;stroke-width:0.3499999999999999;"/><path d="M233.0111,191.357 L233.0111,198.357 L240.0111,198.357 L233.0111,191.357 " fill="#FEFFDD" style="stroke:#181818;stroke-width:0.3499999999999999;"/><text fill="#000000" font-family="sans-serif" font-size="9.1" lengthAdjust="spacing" textLength="116.3405" x="113.3111" y="204.6769">Client B proceeds to attack 6</text><path d="M8.3626,217.4607 L8.3626,236.3607 L142.7626,236.3607 L142.7626,224.4607 L135.7626,217.4607 L8.3626,217.4607 " fill="#FEFFDD" style="stroke:#181818;stroke-width:0.3499999999999999;"/><path d="M135.7626,217.4607 L135.7626,224.4607 L142.7626,224.4607 L135.7626,217.4607 " fill="#FEFFDD" style="stroke:#181818;stroke-width:0.3499999999999999;"/><text fill="#000000" font-family="sans-serif" font-size="9.1" lengthAdjust="spacing" textLength="116.3405" x="14.3512" y="230.7806">Client A proceeds to attack 4</text><path d="M109.1111,243.5645 L109.1111,262.4645 L240.0111,262.4645 L240.0111,250.5645 L233.0111,243.5645 L109.1111,243.5645 " fill="#FEFFDD" style="stroke:#181818;stroke-width:0.3499999999999999;"/><path d="M233.0111,243.5645 L233.0111,250.5645 L240.0111,250.5645 L233.0111,243.5645 " fill="#FEFFDD" style="stroke:#181818;stroke-width:0.3499999999999999;"/><text fill="#000000" font-family="sans-serif" font-size="9.1" lengthAdjust="spacing" textLength="116.3405" x="113.3111" y="256.8843">Client B proceeds to attack 7</text><polygon fill="#181818" points="33.2572,279.6719,26.2572,282.4719,33.2572,285.2719,30.4572,282.4719" style="stroke:#181818;stroke-width:0.6999999999999998;"/><line style="stroke:#181818;stroke-width:0.6999999999999998;" x1="29.0572" x2="125.0857" y1="282.4719" y2="282.4719"/><text fill="#000000" font-family="sans-serif" font-size="9.1" lengthAdjust="spacing" textLength="45.5044" x="37.4572" y="278.788">URBOARD</text><polygon fill="#181818" points="33.2572,301.5756,26.2572,304.3756,33.2572,307.1756,30.4572,304.3756" style="stroke:#181818;stroke-width:0.6999999999999998;"/><line style="stroke:#181818;stroke-width:0.6999999999999998;" x1="29.0572" x2="125.0857" y1="304.3756" y2="304.3756"/><text fill="#000000" font-family="sans-serif" font-size="9.1" lengthAdjust="spacing" textLength="35.8979" x="37.4572" y="300.6917">ATTACK</text><polygon fill="#181818" points="117.3857,323.4793,124.3857,326.2793,117.3857,329.0793,120.1857,326.2793" style="stroke:#181818;stroke-width:0.6999999999999998;"/><line style="stroke:#181818;stroke-width:0.6999999999999998;" x1="25.5572" x2="121.5857" y1="326.2793" y2="326.2793"/><text fill="#000000" font-family="sans-serif" font-size="9.1" lengthAdjust="spacing" textLength="46.2731" x="30.4572" y="322.5954">ATTACK=3</text><polygon fill="#181818" points="33.2572,345.383,26.2572,348.183,33.2572,350.983,30.4572,348.183" style="stroke:#181818;stroke-width:0.6999999999999998;"/><line style="stroke:#181818;stroke-width:0.6999999999999998;" x1="29.0572" x2="125.0857" y1="348.183" y2="348.183"/><text fill="#000000" font-family="sans-serif" font-size="9.1" lengthAdjust="spacing" textLength="32.8631" x="37.4572" y="344.4991">ERROR</text><polygon fill="#181818" points="117.3857,367.2867,124.3857,370.0867,117.3857,372.8867,120.1857,370.0867" style="stroke:#181818;stroke-width:0.6999999999999998;"/><line style="stroke:#181818;stroke-width:0.6999999999999998;" x1="25.5572" x2="121.5857" y1="370.0867" y2="370.0867"/><text fill="#000000" font-family="sans-serif" font-size="9.1" lengthAdjust="spacing" textLength="46.2731" x="30.4572" y="366.4028">ATTACK=6</text><polygon fill="#181818" points="33.2572,389.1904,26.2572,391.9904,33.2572,394.7904,30.4572,391.9904" style="stroke:#181818;stroke-width:0.6999999999999998;"/><line style="stroke:#181818;stroke-width:0.6999999999999998;" x1="29.0572" x2="125.0857" y1="391.9904" y2="391.9904"/><text fill="#000000" font-family="sans-serif" font-size="9.1" lengthAdjust="spacing" textLength="14.6586" x="37.4572" y="388.3065">HIT</text><polygon fill="#181818" points="215.0771,389.1904,222.0771,391.9904,215.0771,394.7904,217.8771,391.9904" style="stroke:#181818;stroke-width:0.6999999999999998;"/><line style="stroke:#181818;stroke-width:0.6999999999999998;" x1="125.7857" x2="219.2771" y1="391.9904" y2="391.9904"/><text fill="#000000" font-family="sans-serif" font-size="9.1" lengthAdjust="spacing" textLength="14.6586" x="130.6857" y="388.3065">HIT</text><path d="M7,401.0904 L7,419.9904 L241.5,419.9904 L241.5,408.0904 L234.5,401.0904 L7,401.0904 " fill="#FEFFDD" style="stroke:#181818;stroke-width:0.3499999999999999;"/><path d="M234.5,401.0904 L234.5,408.0904 L241.5,408.0904 L234.5,401.0904 " fill="#FEFFDD" style="stroke:#181818;stroke-width:0.3499999999999999;"/><text fill="#000000" font-family="sans-serif" font-size="9.1" lengthAdjust="spacing" textLength="103.1792" x="69.7775" y="414.4103">Game continues normally</text><polygon fill="#181818" points="33.2572,437.1979,26.2572,439.9979,33.2572,442.7979,30.4572,439.9979" style="stroke:#181818;stroke-width:0.6999999999999998;"/><line style="stroke:#181818;stroke-width:0.6999999999999998;" x1="29.0572" x2="125.0857" y1="439.9979" y2="439.9979"/><text fill="#000000" font-family="sans-serif" font-size="9.1" lengthAdjust="spacing" textLength="83.4285" x="37.4572" y="436.314">OPPONENTBOARD</text><polygon fill="#181818" points="215.0771,459.1016,222.0771,461.9016,215.0771,464.7016,217.8771,461.9016" style="stroke:#181818;stroke-width:0.6999999999999998;"/><line style="stroke:#181818;stroke-width:0.6999999999999998;" x1="125.7857" x2="219.2771" y1="461.9016" y2="461.9016"/><text fill="#000000" font-family="sans-serif" font-size="9.1" lengthAdjust="spacing" textLength="45.5044" x="130.6857" y="458.2177">URBOARD</text><rect fill="#EEEEEE" height="2.1" style="stroke:#EEEEEE;stroke-width:0.6999999999999998;" width="242.0342" x="3.5" y="482.6534"/><line style="stroke:#000000;stroke-width:0.6999999999999998;" x1="3.5" x2="245.5342" y1="482.6534" y2="482.6534"/><line style="stroke:#000000;stroke-width:0.6999999999999998;" x1="3.5" x2="245.5342" y1="484.7534" y2="484.7534"/><rect fill="#EEEEEE" height="17.7037" style="stroke:#000000;stroke-width:1.3999999999999997;" width="89.6916" x="79.6713" y="474.5016"/><text fill="#000000" font-family="sans-serif" font-size="9.1" font-weight="bold" lengthAdjust="spacing" textLength="77.3633" x="83.8713" y="487.1214">Game Conclusion</text><polygon fill="#181818" points="33.2572,512.709,26.2572,515.509,33.2572,518.309,30.4572,515.509" style="stroke:#181818;stroke-width:0.6999999999999998;"/><line style="stroke:#181818;stroke-width:0.6999999999999998;" x1="29.0572" x2="125.0857" y1="515.509" y2="515.509"/><text fill="#000000" font-family="sans-serif" font-size="9.1" lengthAdjust="spacing" textLength="28.8107" x="37.4572" y="511.8251">UWON</text><polygon fill="#181818" points="215.0771,512.709,222.0771,515.509,215.0771,518.309,217.8771,515.509" style="stroke:#181818;stroke-width:0.6999999999999998;"/><line style="stroke:#181818;stroke-width:0.6999999999999998;" x1="125.7857" x2="219.2771" y1="515.509" y2="515.509"/><text fill="#000000" font-family="sans-serif" font-size="9.1" lengthAdjust="spacing" textLength="30.3393" x="130.6857" y="511.8251">ULOST</text><rect fill="#EEEEEE" height="2.1" style="stroke:#EEEEEE;stroke-width:0.6999999999999998;" width="242.0342" x="3.5" y="536.2608"/><line style="stroke:#000000;stroke-width:0.6999999999999998;" x1="3.5" x2="245.5342" y1="536.2608" y2="536.2608"/><line style="stroke:#000000;stroke-width:0.6999999999999998;" x1="3.5" x2="245.5342" y1="538.3608" y2="538.3608"/><rect fill="#EEEEEE" height="17.7037" style="stroke:#000000;stroke-width:1.3999999999999997;" width="103.3327" x="72.8508" y="528.109"/><text fill="#000000" font-family="sans-serif" font-size="9.1" font-weight="bold" lengthAdjust="spacing" textLength="91.0044" x="77.0508" y="540.7288">Rematch proposition</text><polygon fill="#181818" points="133.4857,566.3164,126.4857,569.1164,133.4857,571.9164,130.6857,569.1164" style="stroke:#181818;stroke-width:0.6999999999999998;"/><line style="stroke:#181818;stroke-width:0.6999999999999998;" x1="129.2857" x2="222.7771" y1="569.1164" y2="569.1164"/><text fill="#000000" font-family="sans-serif" font-size="9.1" lengthAdjust="spacing" textLength="80.8914" x="137.6857" y="565.4325">REMATCH_OFFER</text><polygon fill="#181818" points="117.3857,588.2201,124.3857,591.0201,117.3857,593.8201,120.1857,591.0201" style="stroke:#181818;stroke-width:0.6999999999999998;"/><line style="stroke:#181818;stroke-width:0.6999999999999998;" x1="25.5572" x2="121.5857" y1="591.0201" y2="591.0201"/><text fill="#000000" font-family="sans-serif" font-size="9.1" lengthAdjust="spacing" textLength="21.7369" x="30.4572" y="587.3362">QUIT</text><polygon fill="#181818" points="33.2572,610.1238,26.2572,612.9238,33.2572,615.7238,30.4572,612.9238" style="stroke:#181818;stroke-width:0.6999999999999998;"/><line style="stroke:#181818;stroke-width:0.6999999999999998;" x1="29.0572" x2="125.0857" y1="612.9238" y2="612.9238"/><text fill="#000000" font-family="sans-serif" font-size="9.1" lengthAdjust="spacing" textLength="75.3372" x="37.4572" y="609.2399">REMATCH_DENY</text><polygon fill="#181818" points="215.0771,610.1238,222.0771,612.9238,215.0771,615.7238,217.8771,612.9238" style="stroke:#181818;stroke-width:0.6999999999999998;"/><line style="stroke:#181818;stroke-width:0.6999999999999998;" x1="125.7857" x2="219.2771" y1="612.9238" y2="612.9238"/><text fill="#000000" font-family="sans-serif" font-size="9.1" lengthAdjust="spacing" textLength="75.3372" x="130.6857" y="609.2399">REMATCH_DENY</text><polygon fill="#181818" points="33.2572,632.0275,26.2572,634.8275,33.2572,637.6275,30.4572,634.8275" style="stroke:#181818;stroke-width:0.6999999999999998;"/><line style="stroke:#181818;stroke-width:0.6999999999999998;" x1="29.0572" x2="125.0857" y1="634.8275" y2="634.8275"/><text fill="#000000" font-family="sans-serif" font-size="9.1" lengthAdjust="spacing" textLength="19.2131" x="37.4572" y="631.1437">END</text><polygon fill="#181818" points="215.0771,632.0275,222.0771,634.8275,215.0771,637.6275,217.8771,634.8275" style="stroke:#181818;stroke-width:0.6999999999999998;"/><line style="stroke:#181818;stroke-width:0.6999999999999998;" x1="125.7857" x2="219.2771" y1="634.8275" y2="634.8275"/><text fill="#000000" font-family="sans-serif" font-size="9.1" lengthAdjust="spacing" textLength="19.2131" x="130.6857" y="631.1437">END</text><!--SRC=[bL9DJyCm3BtdLvWTEC41DeOqgKX9ssqLh1rf9yHfYae44MrIfHdIzkj9zz6qsYuxHNv-iVsUVLDfzbqoC5pjmEWDHnNJHkIYOjB0m2y4joyU0Al1n_raolKVr_jKUl4RENmZ27aUp5Z98PB225Q87JD2IV0yX5AuVx6b9p33Yv26EFX4jt00IHVqSOEb4uZYA5lFQ1Hu3_08JyWdPuaXZ63STgqAjcrQIMKuA3koRNTdMqpW90yghNBElsem2fWnBF-5OPTFUdnoYJ- -ilxeolhFpgaL9GccWGDmbc7_rLbqYBsXOuIK9lICC7Q4UPHrVM_2lfxzDfeTvaeQ8JUy1gbqoOfYwweaosKIXt7MdO-uWTixy9NCYqrzl04dx2E9krEitf8qQpvHNZAJ_pI-LAeMf-DfLq_31Sxy-JgPJiEEpFULbT5MFv62CExTM0ztZiL1bsJ3Vm00]--></g></svg>