<svg xmlns="http://www.w3.org/2000/svg" xmlns:xlink="http://www.w3.org/1999/xlink" contentStyleType="text/css" height="695.8px" preserveAspectRatio="none" style="width:249px;height:695px;background:#FFFFFF;" version="1.1" viewBox="0 0 249 695" width="249.9px" zoomAndPan="magnify"><defs/><g><line style="stroke:#181818;stroke-width:0.3499999999999999;stroke-dasharray:5.0,5.0;" x1="25.5572" x2="25.5572" y1="27.0348" y2="669.3312"/><line style="stroke:#181818;stroke-width:0.3499999999999999;stroke-dasharray:5.0,5.0;" x1="125.7857" x2="125.7857" y1="27.0348" y2="669.3312"/><line style="stroke:#181818;stroke-width:0.3499999999999999;stroke-dasharray:5.0,5.0;" x1="223.4771" x2="223.4771" y1="27.0348" y2="669.3312"/><rect fill="#E2E2F0" height="22.8348" rx="1.75" ry="1.75" style="stroke:#181818;stroke-width:0.3499999999999999;" width="44.1144" x="3.5" y="3.5"/><text fill="#000000" font-family="sans-serif" font-size="9.8" lengthAdjust="spacing" textLength="34.3144" x="8.4" y="18.9752">Client A</text><rect fill="#E2E2F0" height="22.8348" rx="1.75" ry="1.75" style="stroke:#181818;stroke-width:0.3499999999999999;" width="38.6641" x="106.4537" y="3.5"/><text fill="#000000" font-family="sans-serif" font-size="9.8" lengthAdjust="spacing" textLength="28.8641" x="111.3537" y="18.9752">Server</text><rect fill="#E2E2F0" height="22.8348" rx="1.75" ry="1.75" style="stroke:#181818;stroke-width:0.3499999999999999;" width="44.1144" x="201.4199" y="3.5"/><text fill="#000000" font-family="sans-serif" font-size="9.8" lengthAdjust="spacing" textLength="34.3144" x="206.3199" y="18.9752">Client B</text><rect fill="#E2E2F0" height="22.8348" rx="1.75" ry="1.75" style="stroke:#181818;stroke-width:0.3499999999999999;" width="44.1144" x="3.5" y="669.3312"/><text fill="#000000" font-family="sans-serif" font-size="9.8" lengthAdjust="spacing" textLength="34.3144" x="8.4" y="684.8064">Client A</text><rect fill="#E2E2F0" height="22.8348" rx="1.75" ry="1.75" style="stroke:#181818;stroke-width:0.3499999999999999;" width="38.6641" x="106.4537" y="669.3312"/><text fill="#000000" font-family="sans-serif" font-size="9.8" lengthAdjust="spacing" textLength="28.8641" x="111.3537" y="684.8064">Server</text><rect fill="#E2E2F0" height="22.8348" rx="1.75" ry="1.75" style="stroke:#181818;stroke-width:0.3499999999999999;" width="44.1144" x="201.4199" y="669.3312"/><text fill="#000000" font-family="sans-serif" font-size="9.8" lengthAdjust="spacing" textLength="34.3144" x="206.3199" y="684.8064">Client B</text><rect fill="#EEEEEE" height="2.1" style="stroke:#EEEEEE;stroke-width:0.6999999999999998;" width="242.0342" x="3.5" y="47.7866"/><line style="stroke:#000000;stroke-width:0.6999999999999998;" x1="3.5" x2="245.5342" y1="47.7866" y2="47.7866"/><line style="stroke:#000000;stroke-width:0.6999999999999998;" x1="3.5" x2="245.5342" y1="49.8866" y2="49.8866"/><rect fill="#EEEEEE" height="17.7037" style="stroke:#000000;stroke-width:1.3999999999999997;" width="92.7264" x="78.1539" y="39.6348"/><text fill="#000000" font-family="sans-serif" font-size="9.1" font-weight="bold" lengthAdjust="spacing" textLength="80.3981" x="82.3539" y="52.2546">Game Initialization</text><polygon fill="#181818" points="33.2572,77.8422,26.2572,80.6422,33.2572,83.4422,30.4572,80.6422" style="stroke:#181818;stroke-width:0.6999999999999998;"/><line style="stroke:#181818;stroke-width:0.6999999999999998;" x1="29.0572" x2="125.0857" y1="80.6422" y2="80.6422"/><text fill="#000000" font-family="sans-serif" font-size="9.1" lengthAdjust="spacing" textLength="58.1502" x="37.4572" y="76.9583">GAMEREADY</text><polygon fill="#181818" points="215.0771,77.8422,222.0771,80.6422,215.0771,83.4422,217.8771,80.6422" style="stroke:#181818;stroke-width:0.6999999999999998;"/><line style="stroke:#181818;stroke-width:0.6999999999999998;" x1="125.7857" x2="219.2771" y1="80.6422" y2="80.6422"/><text fill="#000000" font-family="sans-serif" font-size="9.1" lengthAdjust="spacing" textLength="58.1502" x="130.6857" y="76.9583">GAMEREADY</text><polygon fill="#181818" points="33.2572,99.7459,26.2572,102.5459,33.2572,105.3459,30.4572,102.5459" style="stroke:#181818;stroke-width:0.6999999999999998;"/><line style="stroke:#181818;stroke-width:0.6999999999999998;" x1="29.0572" x2="125.0857" y1="102.5459" y2="102.5459"/><text fill="#000000" font-family="sans-serif" font-size="9.1" lengthAdjust="spacing" textLength="44.9979" x="37.4572" y="98.862">INIT_GRID</text><polygon fill="#181818" points="215.0771,99.7459,222.0771,102.5459,215.0771,105.3459,217.8771,102.5459" style="stroke:#181818;stroke-width:0.6999999999999998;"/><line style="stroke:#181818;stroke-width:0.6999999999999998;" x1="125.7857" x2="219.2771" y1="102.5459" y2="102.5459"/><text fill="#000000" font-family="sans-serif" font-size="9.1" lengthAdjust="spacing" textLength="44.9979" x="130.6857" y="98.862">INIT_GRID</text><polygon fill="#181818" points="117.3857,121.6496,124.3857,124.4496,117.3857,127.2496,120.1857,124.4496" style="stroke:#181818;stroke-width:0.6999999999999998;"/><line style="stroke:#181818;stroke-width:0.6999999999999998;" x1="25.5572" x2="121.5857" y1="124.4496" y2="124.4496"/><text fill="#000000" font-family="sans-serif" font-size="9.1" lengthAdjust="spacing" textLength="70.5517" x="30.4572" y="120.7657">INIT_GRID=1 2 5</text><polygon fill="#181818" points="133.4857,143.5533,126.4857,146.3533,133.4857,149.1533,130.6857,146.3533" style="stroke:#181818;stroke-width:0.6999999999999998;"/><line style="stroke:#181818;stroke-width:0.6999999999999998;" x1="129.2857" x2="222.7771" y1="146.3533" y2="146.3533"/><text fill="#000000" font-family="sans-serif" font-size="9.1" lengthAdjust="spacing" textLength="70.5517" x="137.6857" y="142.6694">INIT_GRID=3 4 6</text><rect fill="#EEEEEE" height="2.1" style="stroke:#EEEEEE;stroke-width:0.6999999999999998;" width="242.0342" x="3.5" y="167.1052"/><line style="stroke:#000000;stroke-width:0.6999999999999998;" x1="3.5" x2="245.5342" y1="167.1052" y2="167.1052"/><line style="stroke:#000000;stroke-width:0.6999999999999998;" x1="3.5" x2="245.5342" y1="169.2052" y2="169.2052"/><rect fill="#EEEEEE" height="17.7037" style="stroke:#000000;stroke-width:1.3999999999999997;" width="55.8288" x="96.6027" y="158.9533"/><text fill="#000000" font-family="sans-serif" font-size="9.1" font-weight="bold" lengthAdjust="spacing" textLength="43.5005" x="100.8027" y="171.5731">Gameplay</text><path d="M8.3626,187.157 L8.3626,206.057 L142.7626,206.057 L142.7626,194.157 L135.7626,187.157 L8.3626,187.157 " fill="#FEFFDD" style="stroke:#181818;stroke-width:0.3499999999999999;"/><path d="M135.7626,187.157 L135.7626,194.157 L142.7626,194.157 L135.7626,187.157 " fill="#FEFFDD" style="stroke:#181818;stroke-width:0.3499999999999999;"/><text fill="#000000" font-family="sans-serif" font-size="9.1" lengthAdjust="spacing" textLength="116.3405" x="14.3512" y="200.4769">Client A proceeds to attack 3</text><path d="M109.1111,213.2607 L109.1111,232.1607 L240.0111,232.1607 L240.0111,220.2607 L233.0111,213.2607 L109.1111,213.2607 " fill="#FEFFDD" style="stroke:#181818;stroke-width:0.3499999999999999;"/><path d="M233.0111,213.2607 L233.0111,220.2607 L240.0111,220.2607 L233.0111,213.2607 " fill="#FEFFDD" style="stroke:#181818;stroke-width:0.3499999999999999;"/><text fill="#000000" font-family="sans-serif" font-size="9.1" lengthAdjust="spacing" textLength="116.3405" x="113.3111" y="226.5806">Client B proceeds to attack 6</text><path d="M8.3626,239.3645 L8.3626,258.2645 L142.7626,258.2645 L142.7626,246.3645 L135.7626,239.3645 L8.3626,239.3645 " fill="#FEFFDD" style="stroke:#181818;stroke-width:0.3499999999999999;"/><path d="M135.7626,239.3645 L135.7626,246.3645 L142.7626,246.3645 L135.7626,239.3645 " fill="#FEFFDD" style="stroke:#181818;stroke-width:0.3499999999999999;"/><text fill="#000000" font-family="sans-serif" font-size="9.1" lengthAdjust="spacing" textLength="116.3405" x="14.3512" y="252.6843">Client A proceeds to attack 4</text><path d="M109.1111,265.4682 L109.1111,284.3682 L240.0111,284.3682 L240.0111,272.4682 L233.0111,265.4682 L109.1111,265.4682 " fill="#FEFFDD" style="stroke:#181818;stroke-width:0.3499999999999999;"/><path d="M233.0111,265.4682 L233.0111,272.4682 L240.0111,272.4682 L233.0111,265.4682 " fill="#FEFFDD" style="stroke:#181818;stroke-width:0.3499999999999999;"/><text fill="#000000" font-family="sans-serif" font-size="9.1" lengthAdjust="spacing" textLength="116.3405" x="113.3111" y="278.788">Client B proceeds to attack 7</text><polygon fill="#181818" points="33.2572,301.5756,26.2572,304.3756,33.2572,307.1756,30.4572,304.3756" style="stroke:#181818;stroke-width:0.6999999999999998;"/><line style="stroke:#181818;stroke-width:0.6999999999999998;" x1="29.0572" x2="125.0857" y1="304.3756" y2="304.3756"/><text fill="#000000" font-family="sans-serif" font-size="9.1" lengthAdjust="spacing" textLength="45.5044" x="37.4572" y="300.6917">URBOARD</text><polygon fill="#181818" points="33.2572,323.4793,26.2572,326.2793,33.2572,329.0793,30.4572,326.2793" style="stroke:#181818;stroke-width:0.6999999999999998;"/><line style="stroke:#181818;stroke-width:0.6999999999999998;" x1="29.0572" x2="125.0857" y1="326.2793" y2="326.2793"/><text fill="#000000" font-family="sans-serif" font-size="9.1" lengthAdjust="spacing" textLength="35.8979" x="37.4572" y="322.5954">ATTACK</text><polygon fill="#181818" points="117.3857,345.383,124.3857,348.183,117.3857,350.983,120.1857,348.183" style="stroke:#181818;stroke-width:0.6999999999999998;"/><line style="stroke:#181818;stroke-width:0.6999999999999998;" x1="25.5572" x2="121.5857" y1="348.183" y2="348.183"/><text fill="#000000" font-family="sans-serif" font-size="9.1" lengthAdjust="spacing" textLength="46.2731" x="30.4572" y="344.4991">ATTACK=3</text><polygon fill="#181818" points="33.2572,367.2867,26.2572,370.0867,33.2572,372.8867,30.4572,370.0867" style="stroke:#181818;stroke-width:0.6999999999999998;"/><line style="stroke:#181818;stroke-width:0.6999999999999998;" x1="29.0572" x2="125.0857" y1="370.0867" y2="370.0867"/><text fill="#000000" font-family="sans-serif" font-size="9.1" lengthAdjust="spacing" textLength="32.8631" x="37.4572" y="366.4028">ERROR</text><polygon fill="#181818" points="117.3857,389.1904,124.3857,391.9904,117.3857,394.7904,120.1857,391.9904" style="stroke:#181818;stroke-width:0.6999999999999998;"/><line style="stroke:#181818;stroke-width:0.6999999999999998;" x1="25.5572" x2="121.5857" y1="391.9904" y2="391.9904"/><text fill="#000000" font-family="sans-serif" font-size="9.1" lengthAdjust="spacing" textLength="46.2731" x="30.4572" y="388.3065">ATTACK=6</text><polygon fill="#181818" points="33.2572,411.0941,26.2572,413.8941,33.2572,416.6941,30.4572,413.8941" style="stroke:#181818;stroke-width:0.6999999999999998;"/><line style="stroke:#181818;stroke-width:0.6999999999999998;" x1="29.0572" x2="125.0857" y1="413.8941" y2="413.8941"/><text fill="#000000" font-family="sans-serif" font-size="9.1" lengthAdjust="spacing" textLength="14.6586" x="37.4572" y="410.2103">HIT</text><polygon fill="#181818" points="215.0771,411.0941,222.0771,413.8941,215.0771,416.6941,217.8771,413.8941" style="stroke:#181818;stroke-width:0.6999999999999998;"/><line style="stroke:#181818;stroke-width:0.6999999999999998;" x1="125.7857" x2="219.2771" y1="413.8941" y2="413.8941"/><text fill="#000000" font-family="sans-serif" font-size="9.1" lengthAdjust="spacing" textLength="14.6586" x="130.6857" y="410.2103">HIT</text><path d="M7,422.9941 L7,441.8941 L241.5,441.8941 L241.5,429.9941 L234.5,422.9941 L7,422.9941 " fill="#FEFFDD" style="stroke:#181818;stroke-width:0.3499999999999999;"/><path d="M234.5,422.9941 L234.5,429.9941 L241.5,429.9941 L234.5,422.9941 " fill="#FEFFDD" style="stroke:#181818;stroke-width:0.3499999999999999;"/><text fill="#000000" font-family="sans-serif" font-size="9.1" lengthAdjust="spacing" textLength="103.1792" x="69.7775" y="436.314">Game continues normally</text><polygon fill="#181818" points="33.2572,459.1016,26.2572,461.9016,33.2572,464.7016,30.4572,461.9016" style="stroke:#181818;stroke-width:0.6999999999999998;"/><line style="stroke:#181818;stroke-width:0.6999999999999998;" x1="29.0572" x2="125.0857" y1="461.9016" y2="461.9016"/><text fill="#000000" font-family="sans-serif" font-size="9.1" lengthAdjust="spacing" textLength="83.4285" x="37.4572" y="458.2177">OPPONENTBOARD</text><polygon fill="#181818" points="215.0771,481.0053,222.0771,483.8053,215.0771,486.6053,217.8771,483.8053" style="stroke:#181818;stroke-width:0.6999999999999998;"/><line style="stroke:#181818;stroke-width:0.6999999999999998;" x1="125.7857" x2="219.2771" y1="483.8053" y2="483.8053"/><text fill="#000000" font-family="sans-serif" font-size="9.1" lengthAdjust="spacing" textLength="45.5044" x="130.6857" y="480.1214">URBOARD</text><rect fill="#EEEEEE" height="2.1" style="stroke:#EEEEEE;stroke-width:0.6999999999999998;" width="242.0342" x="3.5" y="504.5571"/><line style="stroke:#000000;stroke-width:0.6999999999999998;" x1="3.5" x2="245.5342" y1="504.5571" y2="504.5571"/><line style="stroke:#000000;stroke-width:0.6999999999999998;" x1="3.5" x2="245.5342" y1="506.6571" y2="506.6571"/><rect fill="#EEEEEE" height="17.7037" style="stroke:#000000;stroke-width:1.3999999999999997;" width="89.6916" x="79.6713" y="496.4053"/><text fill="#000000" font-family="sans-serif" font-size="9.1" font-weight="bold" lengthAdjust="spacing" textLength="77.3633" x="83.8713" y="509.0251">Game Conclusion</text><polygon fill="#181818" points="33.2572,534.6127,26.2572,537.4127,33.2572,540.2127,30.4572,537.4127" style="stroke:#181818;stroke-width:0.6999999999999998;"/><line style="stroke:#181818;stroke-width:0.6999999999999998;" x1="29.0572" x2="125.0857" y1="537.4127" y2="537.4127"/><text fill="#000000" font-family="sans-serif" font-size="9.1" lengthAdjust="spacing" textLength="28.8107" x="37.4572" y="533.7288">UWON</text><polygon fill="#181818" points="215.0771,534.6127,222.0771,537.4127,215.0771,540.2127,217.8771,537.4127" style="stroke:#181818;stroke-width:0.6999999999999998;"/><line style="stroke:#181818;stroke-width:0.6999999999999998;" x1="125.7857" x2="219.2771" y1="537.4127" y2="537.4127"/><text fill="#000000" font-family="sans-serif" font-size="9.1" lengthAdjust="spacing" textLength="30.3393" x="130.6857" y="533.7288">ULOST</text><rect fill="#EEEEEE" height="2.1" style="stroke:#EEEEEE;stroke-width:0.6999999999999998;" width="242.0342" x="3.5" y="558.1646"/><line style="stroke:#000000;stroke-width:0.6999999999999998;" x1="3.5" x2="245.5342" y1="558.1646" y2="558.1646"/><line style="stroke:#000000;stroke-width:0.6999999999999998;" x1="3.5" x2="245.5342" y1="560.2646" y2="560.2646"/><rect fill="#EEEEEE" height="17.7037" style="stroke:#000000;stroke-width:1.3999999999999997;" width="103.3327" x="72.8508" y="550.0127"/><text fill="#000000" font-family="sans-serif" font-size="9.1" font-weight="bold" lengthAdjust="spacing" textLength="91.0044" x="77.0508" y="562.6325">Rematch proposition</text><polygon fill="#181818" points="133.4857,588.2201,126.4857,591.0201,133.4857,593.8201,130.6857,591.0201" style="stroke:#181818;stroke-width:0.6999999999999998;"/><line style="stroke:#181818;stroke-width:0.6999999999999998;" x1="129.2857" x2="222.7771" y1="591.0201" y2="591.0201"/><text fill="#000000" font-family="sans-serif" font-size="9.1" lengthAdjust="spacing" textLength="80.8914" x="137.6857" y="587.3362">REMATCH_OFFER</text><polygon fill="#181818" points="117.3857,610.1238,124.3857,612.9238,117.3857,615.7238,120.1857,612.9238" style="stroke:#181818;stroke-width:0.6999999999999998;"/><line style="stroke:#181818;stroke-width:0.6999999999999998;" x1="25.5572" x2="121.5857" y1="612.9238" y2="612.9238"/><text fill="#000000" font-family="sans-serif" font-size="9.1" lengthAdjust="spacing" textLength="21.7369" x="30.4572" y="609.2399">QUIT</text><polygon fill="#181818" points="33.2572,632.0275,26.2572,634.8275,33.2572,637.6275,30.4572,634.8275" style="stroke:#181818;stroke-width:0.6999999999999998;"/><line style="stroke:#181818;stroke-width:0.6999999999999998;" x1="29.0572" x2="125.0857" y1="634.8275" y2="634.8275"/><text fill="#000000" font-family="sans-serif" font-size="9.1" lengthAdjust="spacing" textLength="75.3372" x="37.4572" y="631.1437">REMATCH_DENY</text><polygon fill="#181818" points="215.0771,632.0275,222.0771,634.8275,215.0771,637.6275,217.8771,634.8275" style="stroke:#181818;stroke-width:0.6999999999999998;"/><line style="stroke:#181818;stroke-width:0.6999999999999998;" x1="125.7857" x2="219.2771" y1="634.8275" y2="634.8275"/><text fill="#000000" font-family="sans-serif" font-size="9.1" lengthAdjust="spacing" textLength="75.3372" x="130.6857" y="631.1437">REMATCH_DENY</text><polygon fill="#181818" points="33.2572,653.9312,26.2572,656.7312,33.2572,659.5312,30.4572,656.7312" style="stroke:#181818;stroke-width:0.6999999999999998;"/><line style="stroke:#181818;stroke-width:0.6999999999999998;" x1="29.0572" x2="125.0857" y1="656.7312" y2="656.7312"/><text fill="#000000" font-family="sans-serif" font-size="9.1" lengthAdjust="spacing" textLength="19.2131" x="37.4572" y="653.0474">END</text><polygon fill="#181818" points="215.0771,653.9312,222.0771,656.7312,215.0771,659.5312,217.8771,656.7312" style="stroke:#181818;stroke-width:0.6999999999999998;"/><line style="stroke:#181818;stroke-width:0.6999999999999998;" x1="125.7857" x2="219.2771" y1="656.7312" y2="656.7312"/><text fill="#000000" font-family="sans-serif" font-size="9.1" lengthAdjust="spacing" textLength="19.2131" x="130.6857" y="653.0474">END</text><!--SRC=[bL9DJyCm3BttLvWTEC41DeOqgKX9ccqLh1rf9yHfYae44MrIjHdIzkjfzz6asYuxHNv-TkpdTrDM_BlWO8JUWQasmYjvPMGcIwuC34WkHVEY0V0Q2Eed4r7zYMgVIYwMuKCPzZpVXnal18HA6ibpkUD6QWM-xta9tByqhISmGmlAA0e-lLiuWDW5EruOXUbwniB0vLcGe1PB7CX_W4TuyWW-ImnX1EDkkZBdstOafOq0tQpMV7VNV361amnGLZeJugi6eu4RmxDV6BfytEFZI_pnbVr7L_P_jagj68uH2oo0qXIHLolH8VQ7ba4PYzaPOMm9yp1rTM_3_ZxxgxMtphGoKcr43KfN1S_phUqIBvTnHAFKdG_RWJk_4AsoV5CVlM8N-uWZTuhLMvoaRH4J1JVPJwjBgMjvCbbtUaONA2NpTJoTKcVDzrMpHjVzH0ferFDY3xUAHJqZDk4_]--></g></svg>