<svg xmlns="http://www.w3.org/2000/svg" xmlns:xlink="http://www.w3.org/1999/xlink" contentStyleType="text/css" height="935.9px" preserveAspectRatio="none" style="width:252px;height:935px;background:#FFFFFF;" version="1.1" viewBox="0 0 252 935" width="252.7px" zoomAndPan="magnify"><defs/><g><line style="stroke:#181818;stroke-width:0.3499999999999999;stroke-dasharray:5.0,5.0;" x1="25.5572" x2="25.5572" y1="27.0348" y2="909.3684"/><line style="stroke:#181818;stroke-width:0.3499999999999999;stroke-dasharray:5.0,5.0;" x1="125.7857" x2="125.7857" y1="27.0348" y2="909.3684"/><line style="stroke:#181818;stroke-width:0.3499999999999999;stroke-dasharray:5.0,5.0;" x1="226.0142" x2="226.0142" y1="27.0348" y2="909.3684"/><rect fill="#E2E2F0" height="22.8348" rx="1.75" ry="1.75" style="stroke:#181818;stroke-width:0.3499999999999999;" width="44.1144" x="3.5" y="3.5"/><text fill="#000000" font-family="sans-serif" font-size="9.8" lengthAdjust="spacing" textLength="34.3144" x="8.4" y="18.9752">Client A</text><rect fill="#E2E2F0" height="22.8348" rx="1.75" ry="1.75" style="stroke:#181818;stroke-width:0.3499999999999999;" width="38.6641" x="106.4537" y="3.5"/><text fill="#000000" font-family="sans-serif" font-size="9.8" lengthAdjust="spacing" textLength="28.8641" x="111.3537" y="18.9752">Server</text><rect fill="#E2E2F0" height="22.8348" rx="1.75" ry="1.75" style="stroke:#181818;stroke-width:0.3499999999999999;" width="44.1144" x="203.957" y="3.5"/><text fill="#000000" font-family="sans-serif" font-size="9.8" lengthAdjust="spacing" textLength="34.3144" x="208.857" y="18.9752">Client B</text><rect fill="#E2E2F0" height="22.8348" rx="1.75" ry="1.75" style="stroke:#181818;stroke-width:0.3499999999999999;" width="44.1144" x="3.5" y="909.3684"/><text fill="#000000" font-family="sans-serif" font-size="9.8" lengthAdjust="spacing" textLength="34.3144" x="8.4" y="924.8436">Client A</text><rect fill="#E2E2F0" height="22.8348" rx="1.75" ry="1.75" style="stroke:#181818;stroke-width:0.3499999999999999;" width="38.6641" x="106.4537" y="909.3684"/><text fill="#000000" font-family="sans-serif" font-size="9.8" lengthAdjust="spacing" textLength="28.8641" x="111.3537" y="924.8436">Server</text><rect fill="#E2E2F0" height="22.8348" rx="1.75" ry="1.75" style="stroke:#181818;stroke-width:0.3499999999999999;" width="44.1144" x="203.957" y="909.3684"/><text fill="#000000" font-family="sans-serif" font-size="9.8" lengthAdjust="spacing" textLength="34.3144" x="208.857" y="924.8436">Client B</text><rect fill="#EEEEEE" height="2.1" style="stroke:#EEEEEE;stroke-width:0.6999999999999998;" width="244.5714" x="3.5" y="47.7866"/><line style="stroke:#000000;stroke-width:0.6999999999999998;" x1="3.5" x2="248.0714" y1="47.7866" y2="47.7866"/><line style="stroke:#000000;stroke-width:0.6999999999999998;" x1="3.5" x2="248.0714" y1="49.8866" y2="49.8866"/><rect fill="#EEEEEE" height="17.7037" style="stroke:#000000;stroke-width:1.3999999999999997;" width="92.7264" x="79.4225" y="39.6348"/><text fill="#000000" font-family="sans-serif" font-size="9.1" font-weight="bold" lengthAdjust="spacing" textLength="80.3981" x="83.6225" y="52.2546">Game Initialization</text><polygon fill="#181818" points="33.2572,77.8422,26.2572,80.6422,33.2572,83.4422,30.4572,80.6422" style="stroke:#181818;stroke-width:0.6999999999999998;"/><line style="stroke:#181818;stroke-width:0.6999999999999998;" x1="29.0572" x2="125.0857" y1="80.6422" y2="80.6422"/><text fill="#000000" font-family="sans-serif" font-size="9.1" lengthAdjust="spacing" textLength="58.1502" x="37.4572" y="76.9583">GAMEREADY</text><polygon fill="#181818" points="217.6142,77.8422,224.6142,80.6422,217.6142,83.4422,220.4142,80.6422" style="stroke:#181818;stroke-width:0.6999999999999998;"/><line style="stroke:#181818;stroke-width:0.6999999999999998;" x1="125.7857" x2="221.8142" y1="80.6422" y2="80.6422"/><text fill="#000000" font-family="sans-serif" font-size="9.1" lengthAdjust="spacing" textLength="58.1502" x="130.6857" y="76.9583">GAMEREADY</text><polygon fill="#181818" points="117.3857,99.7459,124.3857,102.5459,117.3857,105.3459,120.1857,102.5459" style="stroke:#181818;stroke-width:0.6999999999999998;"/><line style="stroke:#181818;stroke-width:0.6999999999999998;" x1="25.5572" x2="121.5857" y1="102.5459" y2="102.5459"/><text fill="#000000" font-family="sans-serif" font-size="9.1" lengthAdjust="spacing" textLength="70.5517" x="30.4572" y="98.862">INIT_GRID=1 2 5</text><polygon fill="#181818" points="133.4857,121.6496,126.4857,124.4496,133.4857,127.2496,130.6857,124.4496" style="stroke:#181818;stroke-width:0.6999999999999998;"/><line style="stroke:#181818;stroke-width:0.6999999999999998;" x1="129.2857" x2="225.3142" y1="124.4496" y2="124.4496"/><text fill="#000000" font-family="sans-serif" font-size="9.1" lengthAdjust="spacing" textLength="70.5517" x="137.6857" y="120.7657">INIT_GRID=3 4 6</text><rect fill="#EEEEEE" height="2.1" style="stroke:#EEEEEE;stroke-width:0.6999999999999998;" width="244.5714" x="3.5" y="145.2015"/><line style="stroke:#000000;stroke-width:0.6999999999999998;" x1="3.5" x2="248.0714" y1="145.2015" y2="145.2015"/><line style="stroke:#000000;stroke-width:0.6999999999999998;" x1="3.5" x2="248.0714" y1="147.3015" y2="147.3015"/><rect fill="#EEEEEE" height="17.7037" style="stroke:#000000;stroke-width:1.3999999999999997;" width="55.8288" x="97.8713" y="137.0496"/><text fill="#000000" font-family="sans-serif" font-size="9.1" font-weight="bold" lengthAdjust="spacing" textLength="43.5005" x="102.0713" y="149.6694">Gameplay</text><polygon fill="#181818" points="33.2572,175.257,26.2572,178.057,33.2572,180.857,30.4572,178.057" style="stroke:#181818;stroke-width:0.6999999999999998;"/><line style="stroke:#181818;stroke-width:0.6999999999999998;" x1="29.0572" x2="125.0857" y1="178.057" y2="178.057"/><text fill="#000000" font-family="sans-serif" font-size="9.1" lengthAdjust="spacing" textLength="45.5044" x="37.4572" y="174.3731">URBOARD</text><polygon fill="#181818" points="33.2572,197.1607,26.2572,199.9607,33.2572,202.7607,30.4572,199.9607" style="stroke:#181818;stroke-width:0.6999999999999998;"/><line style="stroke:#181818;stroke-width:0.6999999999999998;" x1="29.0572" x2="125.0857" y1="199.9607" y2="199.9607"/><text fill="#000000" font-family="sans-serif" font-size="9.1" lengthAdjust="spacing" textLength="35.8979" x="37.4572" y="196.2769">ATTACK</text><polygon fill="#181818" points="117.3857,219.0645,124.3857,221.8645,117.3857,224.6645,120.1857,221.8645" style="stroke:#181818;stroke-width:0.6999999999999998;"/><line style="stroke:#181818;stroke-width:0.6999999999999998;" x1="25.5572" x2="121.5857" y1="221.8645" y2="221.8645"/><text fill="#000000" font-family="sans-serif" font-size="9.1" lengthAdjust="spacing" textLength="46.2731" x="30.4572" y="218.1806">ATTACK=3</text><polygon fill="#181818" points="33.2572,240.9682,26.2572,243.7682,33.2572,246.5682,30.4572,243.7682" style="stroke:#181818;stroke-width:0.6999999999999998;"/><line style="stroke:#181818;stroke-width:0.6999999999999998;" x1="29.0572" x2="125.0857" y1="243.7682" y2="243.7682"/><text fill="#000000" font-family="sans-serif" font-size="9.1" lengthAdjust="spacing" textLength="14.6586" x="37.4572" y="240.0843">HIT</text><polygon fill="#181818" points="217.6142,240.9682,224.6142,243.7682,217.6142,246.5682,220.4142,243.7682" style="stroke:#181818;stroke-width:0.6999999999999998;"/><line style="stroke:#181818;stroke-width:0.6999999999999998;" x1="125.7857" x2="221.8142" y1="243.7682" y2="243.7682"/><text fill="#000000" font-family="sans-serif" font-size="9.1" lengthAdjust="spacing" textLength="14.6586" x="130.6857" y="240.0843">HIT</text><polygon fill="#181818" points="33.2572,262.8719,26.2572,265.6719,33.2572,268.4719,30.4572,265.6719" style="stroke:#181818;stroke-width:0.6999999999999998;"/><line style="stroke:#181818;stroke-width:0.6999999999999998;" x1="29.0572" x2="125.0857" y1="265.6719" y2="265.6719"/><text fill="#000000" font-family="sans-serif" font-size="9.1" lengthAdjust="spacing" textLength="83.4285" x="37.4572" y="261.988">OPPONENTBOARD</text><polygon fill="#181818" points="217.6142,262.8719,224.6142,265.6719,217.6142,268.4719,220.4142,265.6719" style="stroke:#181818;stroke-width:0.6999999999999998;"/><line style="stroke:#181818;stroke-width:0.6999999999999998;" x1="125.7857" x2="221.8142" y1="265.6719" y2="265.6719"/><text fill="#000000" font-family="sans-serif" font-size="9.1" lengthAdjust="spacing" textLength="45.5044" x="130.6857" y="261.988">URBOARD</text><polygon fill="#181818" points="33.2572,284.7756,26.2572,287.5756,33.2572,290.3756,30.4572,287.5756" style="stroke:#181818;stroke-width:0.6999999999999998;"/><line style="stroke:#181818;stroke-width:0.6999999999999998;" x1="29.0572" x2="125.0857" y1="287.5756" y2="287.5756"/><text fill="#000000" font-family="sans-serif" font-size="9.1" lengthAdjust="spacing" textLength="22.7456" x="37.4572" y="283.8917">WAIT</text><polygon fill="#181818" points="217.6142,284.7756,224.6142,287.5756,217.6142,290.3756,220.4142,287.5756" style="stroke:#181818;stroke-width:0.6999999999999998;"/><line style="stroke:#181818;stroke-width:0.6999999999999998;" x1="125.7857" x2="221.8142" y1="287.5756" y2="287.5756"/><text fill="#000000" font-family="sans-serif" font-size="9.1" lengthAdjust="spacing" textLength="35.8979" x="130.6857" y="283.8917">ATTACK</text><polygon fill="#181818" points="133.4857,306.6793,126.4857,309.4793,133.4857,312.2793,130.6857,309.4793" style="stroke:#181818;stroke-width:0.6999999999999998;"/><line style="stroke:#181818;stroke-width:0.6999999999999998;" x1="129.2857" x2="225.3142" y1="309.4793" y2="309.4793"/><text fill="#000000" font-family="sans-serif" font-size="9.1" lengthAdjust="spacing" textLength="46.2731" x="137.6857" y="305.7954">ATTACK=6</text><polygon fill="#181818" points="217.6142,328.583,224.6142,331.383,217.6142,334.183,220.4142,331.383" style="stroke:#181818;stroke-width:0.6999999999999998;"/><line style="stroke:#181818;stroke-width:0.6999999999999998;" x1="125.7857" x2="221.8142" y1="331.383" y2="331.383"/><text fill="#000000" font-family="sans-serif" font-size="9.1" lengthAdjust="spacing" textLength="22.2479" x="130.6857" y="327.6991">MISS</text><polygon fill="#181818" points="217.6142,350.4867,224.6142,353.2867,217.6142,356.0867,220.4142,353.2867" style="stroke:#181818;stroke-width:0.6999999999999998;"/><line style="stroke:#181818;stroke-width:0.6999999999999998;" x1="125.7857" x2="221.8142" y1="353.2867" y2="353.2867"/><text fill="#000000" font-family="sans-serif" font-size="9.1" lengthAdjust="spacing" textLength="83.4285" x="130.6857" y="349.6028">OPPONENTBOARD</text><polygon fill="#181818" points="217.6142,372.3904,224.6142,375.1904,217.6142,377.9904,220.4142,375.1904" style="stroke:#181818;stroke-width:0.6999999999999998;"/><line style="stroke:#181818;stroke-width:0.6999999999999998;" x1="125.7857" x2="221.8142" y1="375.1904" y2="375.1904"/><text fill="#000000" font-family="sans-serif" font-size="9.1" lengthAdjust="spacing" textLength="22.7456" x="130.6857" y="371.5065">WAIT</text><path d="M8.3626,384.2904 L8.3626,403.1904 L142.7626,403.1904 L142.7626,391.2904 L135.7626,384.2904 L8.3626,384.2904 " fill="#FEFFDD" style="stroke:#181818;stroke-width:0.3499999999999999;"/><path d="M135.7626,384.2904 L135.7626,391.2904 L142.7626,391.2904 L135.7626,384.2904 " fill="#FEFFDD" style="stroke:#181818;stroke-width:0.3499999999999999;"/><text fill="#000000" font-family="sans-serif" font-size="9.1" lengthAdjust="spacing" textLength="116.3405" x="14.3512" y="397.6103">Client A proceeds to attack 4</text><path d="M110.3797,410.3941 L110.3797,429.2941 L241.2797,429.2941 L241.2797,417.3941 L234.2797,410.3941 L110.3797,410.3941 " fill="#FEFFDD" style="stroke:#181818;stroke-width:0.3499999999999999;"/><path d="M234.2797,410.3941 L234.2797,417.3941 L241.2797,417.3941 L234.2797,410.3941 " fill="#FEFFDD" style="stroke:#181818;stroke-width:0.3499999999999999;"/><text fill="#000000" font-family="sans-serif" font-size="9.1" lengthAdjust="spacing" textLength="116.3405" x="114.5797" y="423.714">Client B proceeds to attack 7</text><polygon fill="#181818" points="33.2572,446.5016,26.2572,449.3016,33.2572,452.1016,30.4572,449.3016" style="stroke:#181818;stroke-width:0.6999999999999998;"/><line style="stroke:#181818;stroke-width:0.6999999999999998;" x1="29.0572" x2="125.0857" y1="449.3016" y2="449.3016"/><text fill="#000000" font-family="sans-serif" font-size="9.1" lengthAdjust="spacing" textLength="35.8979" x="37.4572" y="445.6177">ATTACK</text><polygon fill="#181818" points="117.3857,468.4053,124.3857,471.2053,117.3857,474.0053,120.1857,471.2053" style="stroke:#181818;stroke-width:0.6999999999999998;"/><line style="stroke:#181818;stroke-width:0.6999999999999998;" x1="25.5572" x2="121.5857" y1="471.2053" y2="471.2053"/><text fill="#000000" font-family="sans-serif" font-size="9.1" lengthAdjust="spacing" textLength="46.2731" x="30.4572" y="467.5214">ATTACK=6</text><polygon fill="#181818" points="33.2572,490.309,26.2572,493.109,33.2572,495.909,30.4572,493.109" style="stroke:#181818;stroke-width:0.6999999999999998;"/><line style="stroke:#181818;stroke-width:0.6999999999999998;" x1="29.0572" x2="125.0857" y1="493.109" y2="493.109"/><text fill="#000000" font-family="sans-serif" font-size="9.1" lengthAdjust="spacing" textLength="14.6586" x="37.4572" y="489.4251">HIT</text><polygon fill="#181818" points="217.6142,490.309,224.6142,493.109,217.6142,495.909,220.4142,493.109" style="stroke:#181818;stroke-width:0.6999999999999998;"/><line style="stroke:#181818;stroke-width:0.6999999999999998;" x1="125.7857" x2="221.8142" y1="493.109" y2="493.109"/><text fill="#000000" font-family="sans-serif" font-size="9.1" lengthAdjust="spacing" textLength="14.6586" x="130.6857" y="489.4251">HIT</text><polygon fill="#181818" points="33.2572,512.2127,26.2572,515.0127,33.2572,517.8127,30.4572,515.0127" style="stroke:#181818;stroke-width:0.6999999999999998;"/><line style="stroke:#181818;stroke-width:0.6999999999999998;" x1="29.0572" x2="125.0857" y1="515.0127" y2="515.0127"/><text fill="#000000" font-family="sans-serif" font-size="9.1" lengthAdjust="spacing" textLength="83.4285" x="37.4572" y="511.3288">OPPONENTBOARD</text><polygon fill="#181818" points="217.6142,512.2127,224.6142,515.0127,217.6142,517.8127,220.4142,515.0127" style="stroke:#181818;stroke-width:0.6999999999999998;"/><line style="stroke:#181818;stroke-width:0.6999999999999998;" x1="125.7857" x2="221.8142" y1="515.0127" y2="515.0127"/><text fill="#000000" font-family="sans-serif" font-size="9.1" lengthAdjust="spacing" textLength="45.5044" x="130.6857" y="511.3288">URBOARD</text><rect fill="#EEEEEE" height="2.1" style="stroke:#EEEEEE;stroke-width:0.6999999999999998;" width="244.5714" x="3.5" y="535.7646"/><line style="stroke:#000000;stroke-width:0.6999999999999998;" x1="3.5" x2="248.0714" y1="535.7646" y2="535.7646"/><line style="stroke:#000000;stroke-width:0.6999999999999998;" x1="3.5" x2="248.0714" y1="537.8646" y2="537.8646"/><rect fill="#EEEEEE" height="17.7037" style="stroke:#000000;stroke-width:1.3999999999999997;" width="89.6916" x="80.9399" y="527.6127"/><text fill="#000000" font-family="sans-serif" font-size="9.1" font-weight="bold" lengthAdjust="spacing" textLength="77.3633" x="85.1399" y="540.2325">Game Conclusion</text><polygon fill="#181818" points="33.2572,565.8201,26.2572,568.6201,33.2572,571.4201,30.4572,568.6201" style="stroke:#181818;stroke-width:0.6999999999999998;"/><line style="stroke:#181818;stroke-width:0.6999999999999998;" x1="29.0572" x2="125.0857" y1="568.6201" y2="568.6201"/><text fill="#000000" font-family="sans-serif" font-size="9.1" lengthAdjust="spacing" textLength="28.8107" x="37.4572" y="564.9362">UWON</text><polygon fill="#181818" points="217.6142,565.8201,224.6142,568.6201,217.6142,571.4201,220.4142,568.6201" style="stroke:#181818;stroke-width:0.6999999999999998;"/><line style="stroke:#181818;stroke-width:0.6999999999999998;" x1="125.7857" x2="221.8142" y1="568.6201" y2="568.6201"/><text fill="#000000" font-family="sans-serif" font-size="9.1" lengthAdjust="spacing" textLength="30.3393" x="130.6857" y="564.9362">ULOST</text><rect fill="#EEEEEE" height="2.1" style="stroke:#EEEEEE;stroke-width:0.6999999999999998;" width="244.5714" x="3.5" y="589.372"/><line style="stroke:#000000;stroke-width:0.6999999999999998;" x1="3.5" x2="248.0714" y1="589.372" y2="589.372"/><line style="stroke:#000000;stroke-width:0.6999999999999998;" x1="3.5" x2="248.0714" y1="591.472" y2="591.472"/><rect fill="#EEEEEE" height="17.7037" style="stroke:#000000;stroke-width:1.3999999999999997;" width="103.3327" x="74.1193" y="581.2201"/><text fill="#000000" font-family="sans-serif" font-size="9.1" font-weight="bold" lengthAdjust="spacing" textLength="91.0044" x="78.3193" y="593.8399">Rematch proposition</text><polygon fill="#181818" points="117.3857,619.4275,124.3857,622.2275,117.3857,625.0275,120.1857,622.2275" style="stroke:#181818;stroke-width:0.6999999999999998;"/><line style="stroke:#181818;stroke-width:0.6999999999999998;" x1="25.5572" x2="121.5857" y1="622.2275" y2="622.2275"/><text fill="#000000" font-family="sans-serif" font-size="9.1" lengthAdjust="spacing" textLength="80.8914" x="30.4572" y="618.5437">REMATCH_OFFER</text><polygon fill="#181818" points="133.4857,641.3312,126.4857,644.1312,133.4857,646.9312,130.6857,644.1312" style="stroke:#181818;stroke-width:0.6999999999999998;"/><line style="stroke:#181818;stroke-width:0.6999999999999998;" x1="129.2857" x2="225.3142" y1="644.1312" y2="644.1312"/><text fill="#000000" font-family="sans-serif" font-size="9.1" lengthAdjust="spacing" textLength="80.8914" x="137.6857" y="640.4474">REMATCH_OFFER</text><rect fill="#EEEEEE" height="2.1" style="stroke:#EEEEEE;stroke-width:0.6999999999999998;" width="244.5714" x="3.5" y="664.8831"/><line style="stroke:#000000;stroke-width:0.6999999999999998;" x1="3.5" x2="248.0714" y1="664.8831" y2="664.8831"/><line style="stroke:#000000;stroke-width:0.6999999999999998;" x1="3.5" x2="248.0714" y1="666.9831" y2="666.9831"/><rect fill="#EEEEEE" height="17.7037" style="stroke:#000000;stroke-width:1.3999999999999997;" width="92.7264" x="79.4225" y="656.7312"/><text fill="#000000" font-family="sans-serif" font-size="9.1" font-weight="bold" lengthAdjust="spacing" textLength="80.3981" x="83.6225" y="669.3511">Game Initialization</text><polygon fill="#181818" points="33.2572,694.9387,26.2572,697.7387,33.2572,700.5387,30.4572,697.7387" style="stroke:#181818;stroke-width:0.6999999999999998;"/><line style="stroke:#181818;stroke-width:0.6999999999999998;" x1="29.0572" x2="125.0857" y1="697.7387" y2="697.7387"/><text fill="#000000" font-family="sans-serif" font-size="9.1" lengthAdjust="spacing" textLength="58.1502" x="37.4572" y="694.0548">GAMEREADY</text><polygon fill="#181818" points="217.6142,694.9387,224.6142,697.7387,217.6142,700.5387,220.4142,697.7387" style="stroke:#181818;stroke-width:0.6999999999999998;"/><line style="stroke:#181818;stroke-width:0.6999999999999998;" x1="125.7857" x2="221.8142" y1="697.7387" y2="697.7387"/><text fill="#000000" font-family="sans-serif" font-size="9.1" lengthAdjust="spacing" textLength="58.1502" x="130.6857" y="694.0548">GAMEREADY</text><path d="M7,706.8387 L7,725.7387 L244.3,725.7387 L244.3,713.8387 L237.3,706.8387 L7,706.8387 " fill="#FEFFDD" style="stroke:#181818;stroke-width:0.3499999999999999;"/><path d="M237.3,706.8387 L237.3,713.8387 L244.3,713.8387 L237.3,706.8387 " fill="#FEFFDD" style="stroke:#181818;stroke-width:0.3499999999999999;"/><text fill="#000000" font-family="sans-serif" font-size="9.1" lengthAdjust="spacing" textLength="157.797" x="43.7372" y="720.1585">Client A loses this game, Client B wins.</text><rect fill="#EEEEEE" height="2.1" style="stroke:#EEEEEE;stroke-width:0.6999999999999998;" width="244.5714" x="3.5" y="744.5942"/><line style="stroke:#000000;stroke-width:0.6999999999999998;" x1="3.5" x2="248.0714" y1="744.5942" y2="744.5942"/><line style="stroke:#000000;stroke-width:0.6999999999999998;" x1="3.5" x2="248.0714" y1="746.6942" y2="746.6942"/><rect fill="#EEEEEE" height="17.7037" style="stroke:#000000;stroke-width:1.3999999999999997;" width="89.6916" x="80.9399" y="736.4424"/><text fill="#000000" font-family="sans-serif" font-size="9.1" font-weight="bold" lengthAdjust="spacing" textLength="77.3633" x="85.1399" y="749.0622">Game Conclusion</text><polygon fill="#181818" points="217.6142,774.6498,224.6142,777.4498,217.6142,780.2498,220.4142,777.4498" style="stroke:#181818;stroke-width:0.6999999999999998;"/><line style="stroke:#181818;stroke-width:0.6999999999999998;" x1="125.7857" x2="221.8142" y1="777.4498" y2="777.4498"/><text fill="#000000" font-family="sans-serif" font-size="9.1" lengthAdjust="spacing" textLength="28.8107" x="130.6857" y="773.7659">UWON</text><polygon fill="#181818" points="33.2572,774.6498,26.2572,777.4498,33.2572,780.2498,30.4572,777.4498" style="stroke:#181818;stroke-width:0.6999999999999998;"/><line style="stroke:#181818;stroke-width:0.6999999999999998;" x1="29.0572" x2="125.0857" y1="777.4498" y2="777.4498"/><text fill="#000000" font-family="sans-serif" font-size="9.1" lengthAdjust="spacing" textLength="30.3393" x="37.4572" y="773.7659">ULOST</text><rect fill="#EEEEEE" height="2.1" style="stroke:#EEEEEE;stroke-width:0.6999999999999998;" width="244.5714" x="3.5" y="798.2017"/><line style="stroke:#000000;stroke-width:0.6999999999999998;" x1="3.5" x2="248.0714" y1="798.2017" y2="798.2017"/><line style="stroke:#000000;stroke-width:0.6999999999999998;" x1="3.5" x2="248.0714" y1="800.3017" y2="800.3017"/><rect fill="#EEEEEE" height="17.7037" style="stroke:#000000;stroke-width:1.3999999999999997;" width="103.3327" x="74.1193" y="790.0498"/><text fill="#000000" font-family="sans-serif" font-size="9.1" font-weight="bold" lengthAdjust="spacing" textLength="91.0044" x="78.3193" y="802.6696">Rematch proposition</text><polygon fill="#181818" points="133.4857,828.2572,126.4857,831.0572,133.4857,833.8572,130.6857,831.0572" style="stroke:#181818;stroke-width:0.6999999999999998;"/><line style="stroke:#181818;stroke-width:0.6999999999999998;" x1="129.2857" x2="225.3142" y1="831.0572" y2="831.0572"/><text fill="#000000" font-family="sans-serif" font-size="9.1" lengthAdjust="spacing" textLength="80.8914" x="137.6857" y="827.3733">REMATCH_OFFER</text><polygon fill="#181818" points="117.3857,850.1609,124.3857,852.9609,117.3857,855.7609,120.1857,852.9609" style="stroke:#181818;stroke-width:0.6999999999999998;"/><line style="stroke:#181818;stroke-width:0.6999999999999998;" x1="25.5572" x2="121.5857" y1="852.9609" y2="852.9609"/><text fill="#000000" font-family="sans-serif" font-size="9.1" lengthAdjust="spacing" textLength="21.7369" x="30.4572" y="849.2771">QUIT</text><polygon fill="#181818" points="33.2572,872.0646,26.2572,874.8646,33.2572,877.6646,30.4572,874.8646" style="stroke:#181818;stroke-width:0.6999999999999998;"/><line style="stroke:#181818;stroke-width:0.6999999999999998;" x1="29.0572" x2="125.0857" y1="874.8646" y2="874.8646"/><text fill="#000000" font-family="sans-serif" font-size="9.1" lengthAdjust="spacing" textLength="75.3372" x="37.4572" y="871.1808">REMATCH_DENY</text><polygon fill="#181818" points="217.6142,872.0646,224.6142,874.8646,217.6142,877.6646,220.4142,874.8646" style="stroke:#181818;stroke-width:0.6999999999999998;"/><line style="stroke:#181818;stroke-width:0.6999999999999998;" x1="125.7857" x2="221.8142" y1="874.8646" y2="874.8646"/><text fill="#000000" font-family="sans-serif" font-size="9.1" lengthAdjust="spacing" textLength="75.3372" x="130.6857" y="871.1808">REMATCH_DENY</text><polygon fill="#181818" points="33.2572,893.9684,26.2572,896.7684,33.2572,899.5684,30.4572,896.7684" style="stroke:#181818;stroke-width:0.6999999999999998;"/><line style="stroke:#181818;stroke-width:0.6999999999999998;" x1="29.0572" x2="125.0857" y1="896.7684" y2="896.7684"/><text fill="#000000" font-family="sans-serif" font-size="9.1" lengthAdjust="spacing" textLength="19.2131" x="37.4572" y="893.0845">END</text><polygon fill="#181818" points="217.6142,893.9684,224.6142,896.7684,217.6142,899.5684,220.4142,896.7684" style="stroke:#181818;stroke-width:0.6999999999999998;"/><line style="stroke:#181818;stroke-width:0.6999999999999998;" x1="125.7857" x2="221.8142" y1="896.7684" y2="896.7684"/><text fill="#000000" font-family="sans-serif" font-size="9.1" lengthAdjust="spacing" textLength="19.2131" x="130.6857" y="893.0845">END</text><!--SRC=[hLB1Ji904BtlLumSFA69WfYGr6ItBT0eBRObn1FPr0riBDscNJJozRQKRhk2wC7JPjwycRSpRoxIZAus52GJEv3Pbg6KPf97FAM9X8uPSrQyk0Cq1nFhoO1bxopRfuAJPQGg8mWP1epfXe6JSCbfp7TKSf60OI0KmDL3qNe8OporVHjRB-WIAf2qGHENM304ntN2vTXtBEC6Rk4EcUGeqOC-39Hg6jFFKaefpNtYOTzg01o6s7ni9AhOw3MCYHEslrM6AkVDPfvhks7LjCKwqbbWlKsjItJT0LACgHC4JQGhANZVDX6IWIWCAPIwXSGGQlCWpKJ4s6iEKW2LaaPlq6_pYSOdf_Ztlovhy4_BKhTYYYIAj_dXJXhp5fwhrJrvGRYlyjc6ocXTVZyLEQylJ7tKjwSuD2TBRpIo_MRfElppfVxrK7KZofmo8XOvAxQwvZci2f5ki_8FdkJNPqSdtqR7zUXd9Zyzebh8yxpjJ4soR5URJCCLstOrzyhm2m00]--></g></svg>