<svg xmlns="http://www.w3.org/2000/svg" xmlns:xlink="http://www.w3.org/1999/xlink" contentStyleType="text/css" height="958.3px" preserveAspectRatio="none" style="width:252px;height:958px;background:#FFFFFF;" version="1.1" viewBox="0 0 252 958" width="252.7px" zoomAndPan="magnify"><defs/><g><line style="stroke:#181818;stroke-width:0.3499999999999999;stroke-dasharray:5.0,5.0;" x1="25.5572" x2="25.5572" y1="27.0348" y2="931.2721"/><line style="stroke:#181818;stroke-width:0.3499999999999999;stroke-dasharray:5.0,5.0;" x1="125.7857" x2="125.7857" y1="27.0348" y2="931.2721"/><line style="stroke:#181818;stroke-width:0.3499999999999999;stroke-dasharray:5.0,5.0;" x1="226.0142" x2="226.0142" y1="27.0348" y2="931.2721"/><rect fill="#E2E2F0" height="22.8348" rx="1.75" ry="1.75" style="stroke:#181818;stroke-width:0.3499999999999999;" width="44.1144" x="3.5" y="3.5"/><text fill="#000000" font-family="sans-serif" font-size="9.8" lengthAdjust="spacing" textLength="34.3144" x="8.4" y="18.9752">Client A</text><rect fill="#E2E2F0" height="22.8348" rx="1.75" ry="1.75" style="stroke:#181818;stroke-width:0.3499999999999999;" width="38.6641" x="106.4537" y="3.5"/><text fill="#000000" font-family="sans-serif" font-size="9.8" lengthAdjust="spacing" textLength="28.8641" x="111.3537" y="18.9752">Server</text><rect fill="#E2E2F0" height="22.8348" rx="1.75" ry="1.75" style="stroke:#181818;stroke-width:0.3499999999999999;" width="44.1144" x="203.957" y="3.5"/><text fill="#000000" font-family="sans-serif" font-size="9.8" lengthAdjust="spacing" textLength="34.3144" x="208.857" y="18.9752">Client B</text><rect fill="#E2E2F0" height="22.8348" rx="1.75" ry="1.75" style="stroke:#181818;stroke-width:0.3499999999999999;" width="44.1144" x="3.5" y="931.2721"/><text fill="#000000" font-family="sans-serif" font-size="9.8" lengthAdjust="spacing" textLength="34.3144" x="8.4" y="946.7473">Client A</text><rect fill="#E2E2F0" height="22.8348" rx="1.75" ry="1.75" style="stroke:#181818;stroke-width:0.3499999999999999;" width="38.6641" x="106.4537" y="931.2721"/><text fill="#000000" font-family="sans-serif" font-size="9.8" lengthAdjust="spacing" textLength="28.8641" x="111.3537" y="946.7473">Server</text><rect fill="#E2E2F0" height="22.8348" rx="1.75" ry="1.75" style="stroke:#181818;stroke-width:0.3499999999999999;" width="44.1144" x="203.957" y="931.2721"/><text fill="#000000" font-family="sans-serif" font-size="9.8" lengthAdjust="spacing" textLength="34.3144" x="208.857" y="946.7473">Client B</text><rect fill="#EEEEEE" height="2.1" style="stroke:#EEEEEE;stroke-width:0.6999999999999998;" width="244.5714" x="3.5" y="47.7866"/><line style="stroke:#000000;stroke-width:0.6999999999999998;" x1="3.5" x2="248.0714" y1="47.7866" y2="47.7866"/><line style="stroke:#000000;stroke-width:0.6999999999999998;" x1="3.5" x2="248.0714" y1="49.8866" y2="49.8866"/><rect fill="#EEEEEE" height="17.7037" style="stroke:#000000;stroke-width:1.3999999999999997;" width="92.7264" x="79.4225" y="39.6348"/><text fill="#000000" font-family="sans-serif" font-size="9.1" font-weight="bold" lengthAdjust="spacing" textLength="80.3981" x="83.6225" y="52.2546">Game Initialization</text><polygon fill="#181818" points="33.2572,77.8422,26.2572,80.6422,33.2572,83.4422,30.4572,80.6422" style="stroke:#181818;stroke-width:0.6999999999999998;"/><line style="stroke:#181818;stroke-width:0.6999999999999998;" x1="29.0572" x2="125.0857" y1="80.6422" y2="80.6422"/><text fill="#000000" font-family="sans-serif" font-size="9.1" lengthAdjust="spacing" textLength="58.1502" x="37.4572" y="76.9583">GAMEREADY</text><polygon fill="#181818" points="217.6142,77.8422,224.6142,80.6422,217.6142,83.4422,220.4142,80.6422" style="stroke:#181818;stroke-width:0.6999999999999998;"/><line style="stroke:#181818;stroke-width:0.6999999999999998;" x1="125.7857" x2="221.8142" y1="80.6422" y2="80.6422"/><text fill="#000000" font-family="sans-serif" font-size="9.1" lengthAdjust="spacing" textLength="58.1502" x="130.6857" y="76.9583">GAMEREADY</text><polygon fill="#181818" points="33.2572,99.7459,26.2572,102.5459,33.2572,105.3459,30.4572,102.5459" style="stroke:#181818;stroke-width:0.6999999999999998;"/><line style="stroke:#181818;stroke-width:0.6999999999999998;" x1="29.0572" x2="125.0857" y1="102.5459" y2="102.5459"/><text fill="#000000" font-family="sans-serif" font-size="9.1" lengthAdjust="spacing" textLength="44.9979" x="37.4572" y="98.862">INIT_GRID</text><polygon fill="#181818" points="217.6142,99.7459,224.6142,102.5459,217.6142,105.3459,220.4142,102.5459" style="stroke:#181818;stroke-width:0.6999999999999998;"/><line style="stroke:#181818;stroke-width:0.6999999999999998;" x1="125.7857" x2="221.8142" y1="102.5459" y2="102.5459"/><text fill="#000000" font-family="sans-serif" font-size="9.1" lengthAdjust="spacing" textLength="44.9979" x="130.6857" y="98.862">INIT_GRID</text><polygon fill="#181818" points="117.3857,121.6496,124.3857,124.4496,117.3857,127.2496,120.1857,124.4496" style="stroke:#181818;stroke-width:0.6999999999999998;"/><line style="stroke:#181818;stroke-width:0.6999999999999998;" x1="25.5572" x2="121.5857" y1="124.4496" y2="124.4496"/><text fill="#000000" font-family="sans-serif" font-size="9.1" lengthAdjust="spacing" textLength="70.5517" x="30.4572" y="120.7657">INIT_GRID=1 2 5</text><polygon fill="#181818" points="133.4857,143.5533,126.4857,146.3533,133.4857,149.1533,130.6857,146.3533" style="stroke:#181818;stroke-width:0.6999999999999998;"/><line style="stroke:#181818;stroke-width:0.6999999999999998;" x1="129.2857" x2="225.3142" y1="146.3533" y2="146.3533"/><text fill="#000000" font-family="sans-serif" font-size="9.1" lengthAdjust="spacing" textLength="70.5517" x="137.6857" y="142.6694">INIT_GRID=3 4 6</text><rect fill="#EEEEEE" height="2.1" style="stroke:#EEEEEE;stroke-width:0.6999999999999998;" width="244.5714" x="3.5" y="167.1052"/><line style="stroke:#000000;stroke-width:0.6999999999999998;" x1="3.5" x2="248.0714" y1="167.1052" y2="167.1052"/><line style="stroke:#000000;stroke-width:0.6999999999999998;" x1="3.5" x2="248.0714" y1="169.2052" y2="169.2052"/><rect fill="#EEEEEE" height="17.7037" style="stroke:#000000;stroke-width:1.3999999999999997;" width="55.8288" x="97.8713" y="158.9533"/><text fill="#000000" font-family="sans-serif" font-size="9.1" font-weight="bold" lengthAdjust="spacing" textLength="43.5005" x="102.0713" y="171.5731">Gameplay</text><polygon fill="#181818" points="33.2572,197.1607,26.2572,199.9607,33.2572,202.7607,30.4572,199.9607" style="stroke:#181818;stroke-width:0.6999999999999998;"/><line style="stroke:#181818;stroke-width:0.6999999999999998;" x1="29.0572" x2="125.0857" y1="199.9607" y2="199.9607"/><text fill="#000000" font-family="sans-serif" font-size="9.1" lengthAdjust="spacing" textLength="45.5044" x="37.4572" y="196.2769">URBOARD</text><polygon fill="#181818" points="33.2572,219.0645,26.2572,221.8645,33.2572,224.6645,30.4572,221.8645" style="stroke:#181818;stroke-width:0.6999999999999998;"/><line style="stroke:#181818;stroke-width:0.6999999999999998;" x1="29.0572" x2="125.0857" y1="221.8645" y2="221.8645"/><text fill="#000000" font-family="sans-serif" font-size="9.1" lengthAdjust="spacing" textLength="35.8979" x="37.4572" y="218.1806">ATTACK</text><polygon fill="#181818" points="117.3857,240.9682,124.3857,243.7682,117.3857,246.5682,120.1857,243.7682" style="stroke:#181818;stroke-width:0.6999999999999998;"/><line style="stroke:#181818;stroke-width:0.6999999999999998;" x1="25.5572" x2="121.5857" y1="243.7682" y2="243.7682"/><text fill="#000000" font-family="sans-serif" font-size="9.1" lengthAdjust="spacing" textLength="46.2731" x="30.4572" y="240.0843">ATTACK=3</text><polygon fill="#181818" points="33.2572,262.8719,26.2572,265.6719,33.2572,268.4719,30.4572,265.6719" style="stroke:#181818;stroke-width:0.6999999999999998;"/><line style="stroke:#181818;stroke-width:0.6999999999999998;" x1="29.0572" x2="125.0857" y1="265.6719" y2="265.6719"/><text fill="#000000" font-family="sans-serif" font-size="9.1" lengthAdjust="spacing" textLength="14.6586" x="37.4572" y="261.988">HIT</text><polygon fill="#181818" points="217.6142,262.8719,224.6142,265.6719,217.6142,268.4719,220.4142,265.6719" style="stroke:#181818;stroke-width:0.6999999999999998;"/><line style="stroke:#181818;stroke-width:0.6999999999999998;" x1="125.7857" x2="221.8142" y1="265.6719" y2="265.6719"/><text fill="#000000" font-family="sans-serif" font-size="9.1" lengthAdjust="spacing" textLength="14.6586" x="130.6857" y="261.988">HIT</text><polygon fill="#181818" points="33.2572,284.7756,26.2572,287.5756,33.2572,290.3756,30.4572,287.5756" style="stroke:#181818;stroke-width:0.6999999999999998;"/><line style="stroke:#181818;stroke-width:0.6999999999999998;" x1="29.0572" x2="125.0857" y1="287.5756" y2="287.5756"/><text fill="#000000" font-family="sans-serif" font-size="9.1" lengthAdjust="spacing" textLength="83.4285" x="37.4572" y="283.8917">OPPONENTBOARD</text><polygon fill="#181818" points="217.6142,284.7756,224.6142,287.5756,217.6142,290.3756,220.4142,287.5756" style="stroke:#181818;stroke-width:0.6999999999999998;"/><line style="stroke:#181818;stroke-width:0.6999999999999998;" x1="125.7857" x2="221.8142" y1="287.5756" y2="287.5756"/><text fill="#000000" font-family="sans-serif" font-size="9.1" lengthAdjust="spacing" textLength="45.5044" x="130.6857" y="283.8917">URBOARD</text><polygon fill="#181818" points="33.2572,306.6793,26.2572,309.4793,33.2572,312.2793,30.4572,309.4793" style="stroke:#181818;stroke-width:0.6999999999999998;"/><line style="stroke:#181818;stroke-width:0.6999999999999998;" x1="29.0572" x2="125.0857" y1="309.4793" y2="309.4793"/><text fill="#000000" font-family="sans-serif" font-size="9.1" lengthAdjust="spacing" textLength="22.7456" x="37.4572" y="305.7954">WAIT</text><polygon fill="#181818" points="217.6142,306.6793,224.6142,309.4793,217.6142,312.2793,220.4142,309.4793" style="stroke:#181818;stroke-width:0.6999999999999998;"/><line style="stroke:#181818;stroke-width:0.6999999999999998;" x1="125.7857" x2="221.8142" y1="309.4793" y2="309.4793"/><text fill="#000000" font-family="sans-serif" font-size="9.1" lengthAdjust="spacing" textLength="35.8979" x="130.6857" y="305.7954">ATTACK</text><polygon fill="#181818" points="133.4857,328.583,126.4857,331.383,133.4857,334.183,130.6857,331.383" style="stroke:#181818;stroke-width:0.6999999999999998;"/><line style="stroke:#181818;stroke-width:0.6999999999999998;" x1="129.2857" x2="225.3142" y1="331.383" y2="331.383"/><text fill="#000000" font-family="sans-serif" font-size="9.1" lengthAdjust="spacing" textLength="46.2731" x="137.6857" y="327.6991">ATTACK=6</text><polygon fill="#181818" points="217.6142,350.4867,224.6142,353.2867,217.6142,356.0867,220.4142,353.2867" style="stroke:#181818;stroke-width:0.6999999999999998;"/><line style="stroke:#181818;stroke-width:0.6999999999999998;" x1="125.7857" x2="221.8142" y1="353.2867" y2="353.2867"/><text fill="#000000" font-family="sans-serif" font-size="9.1" lengthAdjust="spacing" textLength="22.2479" x="130.6857" y="349.6028">MISS</text><polygon fill="#181818" points="33.2572,350.4867,26.2572,353.2867,33.2572,356.0867,30.4572,353.2867" style="stroke:#181818;stroke-width:0.6999999999999998;"/><line style="stroke:#181818;stroke-width:0.6999999999999998;" x1="29.0572" x2="125.0857" y1="353.2867" y2="353.2867"/><text fill="#000000" font-family="sans-serif" font-size="9.1" lengthAdjust="spacing" textLength="22.2479" x="37.4572" y="349.6028">MISS</text><polygon fill="#181818" points="217.6142,372.3904,224.6142,375.1904,217.6142,377.9904,220.4142,375.1904" style="stroke:#181818;stroke-width:0.6999999999999998;"/><line style="stroke:#181818;stroke-width:0.6999999999999998;" x1="125.7857" x2="221.8142" y1="375.1904" y2="375.1904"/><text fill="#000000" font-family="sans-serif" font-size="9.1" lengthAdjust="spacing" textLength="83.4285" x="130.6857" y="371.5065">OPPONENTBOARD</text><polygon fill="#181818" points="33.2572,372.3904,26.2572,375.1904,33.2572,377.9904,30.4572,375.1904" style="stroke:#181818;stroke-width:0.6999999999999998;"/><line style="stroke:#181818;stroke-width:0.6999999999999998;" x1="29.0572" x2="125.0857" y1="375.1904" y2="375.1904"/><text fill="#000000" font-family="sans-serif" font-size="9.1" lengthAdjust="spacing" textLength="45.5044" x="37.4572" y="371.5065">URBOARD</text><polygon fill="#181818" points="217.6142,394.2941,224.6142,397.0941,217.6142,399.8941,220.4142,397.0941" style="stroke:#181818;stroke-width:0.6999999999999998;"/><line style="stroke:#181818;stroke-width:0.6999999999999998;" x1="125.7857" x2="221.8142" y1="397.0941" y2="397.0941"/><text fill="#000000" font-family="sans-serif" font-size="9.1" lengthAdjust="spacing" textLength="22.7456" x="130.6857" y="393.4103">WAIT</text><path d="M8.3626,406.1941 L8.3626,425.0941 L142.7626,425.0941 L142.7626,413.1941 L135.7626,406.1941 L8.3626,406.1941 " fill="#FEFFDD" style="stroke:#181818;stroke-width:0.3499999999999999;"/><path d="M135.7626,406.1941 L135.7626,413.1941 L142.7626,413.1941 L135.7626,406.1941 " fill="#FEFFDD" style="stroke:#181818;stroke-width:0.3499999999999999;"/><text fill="#000000" font-family="sans-serif" font-size="9.1" lengthAdjust="spacing" textLength="116.3405" x="14.3512" y="419.514">Client A proceeds to attack 4</text><path d="M110.3797,432.2979 L110.3797,451.1979 L241.2797,451.1979 L241.2797,439.2979 L234.2797,432.2979 L110.3797,432.2979 " fill="#FEFFDD" style="stroke:#181818;stroke-width:0.3499999999999999;"/><path d="M234.2797,432.2979 L234.2797,439.2979 L241.2797,439.2979 L234.2797,432.2979 " fill="#FEFFDD" style="stroke:#181818;stroke-width:0.3499999999999999;"/><text fill="#000000" font-family="sans-serif" font-size="9.1" lengthAdjust="spacing" textLength="116.3405" x="114.5797" y="445.6177">Client B proceeds to attack 7</text><polygon fill="#181818" points="33.2572,468.4053,26.2572,471.2053,33.2572,474.0053,30.4572,471.2053" style="stroke:#181818;stroke-width:0.6999999999999998;"/><line style="stroke:#181818;stroke-width:0.6999999999999998;" x1="29.0572" x2="125.0857" y1="471.2053" y2="471.2053"/><text fill="#000000" font-family="sans-serif" font-size="9.1" lengthAdjust="spacing" textLength="35.8979" x="37.4572" y="467.5214">ATTACK</text><polygon fill="#181818" points="117.3857,490.309,124.3857,493.109,117.3857,495.909,120.1857,493.109" style="stroke:#181818;stroke-width:0.6999999999999998;"/><line style="stroke:#181818;stroke-width:0.6999999999999998;" x1="25.5572" x2="121.5857" y1="493.109" y2="493.109"/><text fill="#000000" font-family="sans-serif" font-size="9.1" lengthAdjust="spacing" textLength="46.2731" x="30.4572" y="489.4251">ATTACK=6</text><polygon fill="#181818" points="33.2572,512.2127,26.2572,515.0127,33.2572,517.8127,30.4572,515.0127" style="stroke:#181818;stroke-width:0.6999999999999998;"/><line style="stroke:#181818;stroke-width:0.6999999999999998;" x1="29.0572" x2="125.0857" y1="515.0127" y2="515.0127"/><text fill="#000000" font-family="sans-serif" font-size="9.1" lengthAdjust="spacing" textLength="14.6586" x="37.4572" y="511.3288">HIT</text><polygon fill="#181818" points="217.6142,512.2127,224.6142,515.0127,217.6142,517.8127,220.4142,515.0127" style="stroke:#181818;stroke-width:0.6999999999999998;"/><line style="stroke:#181818;stroke-width:0.6999999999999998;" x1="125.7857" x2="221.8142" y1="515.0127" y2="515.0127"/><text fill="#000000" font-family="sans-serif" font-size="9.1" lengthAdjust="spacing" textLength="14.6586" x="130.6857" y="511.3288">HIT</text><polygon fill="#181818" points="33.2572,534.1164,26.2572,536.9164,33.2572,539.7164,30.4572,536.9164" style="stroke:#181818;stroke-width:0.6999999999999998;"/><line style="stroke:#181818;stroke-width:0.6999999999999998;" x1="29.0572" x2="125.0857" y1="536.9164" y2="536.9164"/><text fill="#000000" font-family="sans-serif" font-size="9.1" lengthAdjust="spacing" textLength="83.4285" x="37.4572" y="533.2325">OPPONENTBOARD</text><polygon fill="#181818" points="217.6142,534.1164,224.6142,536.9164,217.6142,539.7164,220.4142,536.9164" style="stroke:#181818;stroke-width:0.6999999999999998;"/><line style="stroke:#181818;stroke-width:0.6999999999999998;" x1="125.7857" x2="221.8142" y1="536.9164" y2="536.9164"/><text fill="#000000" font-family="sans-serif" font-size="9.1" lengthAdjust="spacing" textLength="45.5044" x="130.6857" y="533.2325">URBOARD</text><rect fill="#EEEEEE" height="2.1" style="stroke:#EEEEEE;stroke-width:0.6999999999999998;" width="244.5714" x="3.5" y="557.6683"/><line style="stroke:#000000;stroke-width:0.6999999999999998;" x1="3.5" x2="248.0714" y1="557.6683" y2="557.6683"/><line style="stroke:#000000;stroke-width:0.6999999999999998;" x1="3.5" x2="248.0714" y1="559.7683" y2="559.7683"/><rect fill="#EEEEEE" height="17.7037" style="stroke:#000000;stroke-width:1.3999999999999997;" width="89.6916" x="80.9399" y="549.5164"/><text fill="#000000" font-family="sans-serif" font-size="9.1" font-weight="bold" lengthAdjust="spacing" textLength="77.3633" x="85.1399" y="562.1362">Game Conclusion</text><polygon fill="#181818" points="33.2572,587.7238,26.2572,590.5238,33.2572,593.3238,30.4572,590.5238" style="stroke:#181818;stroke-width:0.6999999999999998;"/><line style="stroke:#181818;stroke-width:0.6999999999999998;" x1="29.0572" x2="125.0857" y1="590.5238" y2="590.5238"/><text fill="#000000" font-family="sans-serif" font-size="9.1" lengthAdjust="spacing" textLength="28.8107" x="37.4572" y="586.8399">UWON</text><polygon fill="#181818" points="217.6142,587.7238,224.6142,590.5238,217.6142,593.3238,220.4142,590.5238" style="stroke:#181818;stroke-width:0.6999999999999998;"/><line style="stroke:#181818;stroke-width:0.6999999999999998;" x1="125.7857" x2="221.8142" y1="590.5238" y2="590.5238"/><text fill="#000000" font-family="sans-serif" font-size="9.1" lengthAdjust="spacing" textLength="30.3393" x="130.6857" y="586.8399">ULOST</text><rect fill="#EEEEEE" height="2.1" style="stroke:#EEEEEE;stroke-width:0.6999999999999998;" width="244.5714" x="3.5" y="611.2757"/><line style="stroke:#000000;stroke-width:0.6999999999999998;" x1="3.5" x2="248.0714" y1="611.2757" y2="611.2757"/><line style="stroke:#000000;stroke-width:0.6999999999999998;" x1="3.5" x2="248.0714" y1="613.3757" y2="613.3757"/><rect fill="#EEEEEE" height="17.7037" style="stroke:#000000;stroke-width:1.3999999999999997;" width="103.3327" x="74.1193" y="603.1238"/><text fill="#000000" font-family="sans-serif" font-size="9.1" font-weight="bold" lengthAdjust="spacing" textLength="91.0044" x="78.3193" y="615.7437">Rematch proposition</text><polygon fill="#181818" points="117.3857,641.3312,124.3857,644.1312,117.3857,646.9312,120.1857,644.1312" style="stroke:#181818;stroke-width:0.6999999999999998;"/><line style="stroke:#181818;stroke-width:0.6999999999999998;" x1="25.5572" x2="121.5857" y1="644.1312" y2="644.1312"/><text fill="#000000" font-family="sans-serif" font-size="9.1" lengthAdjust="spacing" textLength="80.8914" x="30.4572" y="640.4474">REMATCH_OFFER</text><polygon fill="#181818" points="133.4857,663.235,126.4857,666.035,133.4857,668.835,130.6857,666.035" style="stroke:#181818;stroke-width:0.6999999999999998;"/><line style="stroke:#181818;stroke-width:0.6999999999999998;" x1="129.2857" x2="225.3142" y1="666.035" y2="666.035"/><text fill="#000000" font-family="sans-serif" font-size="9.1" lengthAdjust="spacing" textLength="80.8914" x="137.6857" y="662.3511">REMATCH_OFFER</text><rect fill="#EEEEEE" height="2.1" style="stroke:#EEEEEE;stroke-width:0.6999999999999998;" width="244.5714" x="3.5" y="686.7868"/><line style="stroke:#000000;stroke-width:0.6999999999999998;" x1="3.5" x2="248.0714" y1="686.7868" y2="686.7868"/><line style="stroke:#000000;stroke-width:0.6999999999999998;" x1="3.5" x2="248.0714" y1="688.8868" y2="688.8868"/><rect fill="#EEEEEE" height="17.7037" style="stroke:#000000;stroke-width:1.3999999999999997;" width="92.7264" x="79.4225" y="678.635"/><text fill="#000000" font-family="sans-serif" font-size="9.1" font-weight="bold" lengthAdjust="spacing" textLength="80.3981" x="83.6225" y="691.2548">Game Initialization</text><polygon fill="#181818" points="33.2572,716.8424,26.2572,719.6424,33.2572,722.4424,30.4572,719.6424" style="stroke:#181818;stroke-width:0.6999999999999998;"/><line style="stroke:#181818;stroke-width:0.6999999999999998;" x1="29.0572" x2="125.0857" y1="719.6424" y2="719.6424"/><text fill="#000000" font-family="sans-serif" font-size="9.1" lengthAdjust="spacing" textLength="58.1502" x="37.4572" y="715.9585">GAMEREADY</text><polygon fill="#181818" points="217.6142,716.8424,224.6142,719.6424,217.6142,722.4424,220.4142,719.6424" style="stroke:#181818;stroke-width:0.6999999999999998;"/><line style="stroke:#181818;stroke-width:0.6999999999999998;" x1="125.7857" x2="221.8142" y1="719.6424" y2="719.6424"/><text fill="#000000" font-family="sans-serif" font-size="9.1" lengthAdjust="spacing" textLength="58.1502" x="130.6857" y="715.9585">GAMEREADY</text><path d="M7,728.7424 L7,747.6424 L244.3,747.6424 L244.3,735.7424 L237.3,728.7424 L7,728.7424 " fill="#FEFFDD" style="stroke:#181818;stroke-width:0.3499999999999999;"/><path d="M237.3,728.7424 L237.3,735.7424 L244.3,735.7424 L237.3,728.7424 " fill="#FEFFDD" style="stroke:#181818;stroke-width:0.3499999999999999;"/><text fill="#000000" font-family="sans-serif" font-size="9.1" lengthAdjust="spacing" textLength="157.797" x="43.7372" y="742.0622">Client A loses this game, Client B wins.</text><rect fill="#EEEEEE" height="2.1" style="stroke:#EEEEEE;stroke-width:0.6999999999999998;" width="244.5714" x="3.5" y="766.4979"/><line style="stroke:#000000;stroke-width:0.6999999999999998;" x1="3.5" x2="248.0714" y1="766.4979" y2="766.4979"/><line style="stroke:#000000;stroke-width:0.6999999999999998;" x1="3.5" x2="248.0714" y1="768.5979" y2="768.5979"/><rect fill="#EEEEEE" height="17.7037" style="stroke:#000000;stroke-width:1.3999999999999997;" width="89.6916" x="80.9399" y="758.3461"/><text fill="#000000" font-family="sans-serif" font-size="9.1" font-weight="bold" lengthAdjust="spacing" textLength="77.3633" x="85.1399" y="770.9659">Game Conclusion</text><polygon fill="#181818" points="217.6142,796.5535,224.6142,799.3535,217.6142,802.1535,220.4142,799.3535" style="stroke:#181818;stroke-width:0.6999999999999998;"/><line style="stroke:#181818;stroke-width:0.6999999999999998;" x1="125.7857" x2="221.8142" y1="799.3535" y2="799.3535"/><text fill="#000000" font-family="sans-serif" font-size="9.1" lengthAdjust="spacing" textLength="28.8107" x="130.6857" y="795.6696">UWON</text><polygon fill="#181818" points="33.2572,796.5535,26.2572,799.3535,33.2572,802.1535,30.4572,799.3535" style="stroke:#181818;stroke-width:0.6999999999999998;"/><line style="stroke:#181818;stroke-width:0.6999999999999998;" x1="29.0572" x2="125.0857" y1="799.3535" y2="799.3535"/><text fill="#000000" font-family="sans-serif" font-size="9.1" lengthAdjust="spacing" textLength="30.3393" x="37.4572" y="795.6696">ULOST</text><rect fill="#EEEEEE" height="2.1" style="stroke:#EEEEEE;stroke-width:0.6999999999999998;" width="244.5714" x="3.5" y="820.1054"/><line style="stroke:#000000;stroke-width:0.6999999999999998;" x1="3.5" x2="248.0714" y1="820.1054" y2="820.1054"/><line style="stroke:#000000;stroke-width:0.6999999999999998;" x1="3.5" x2="248.0714" y1="822.2054" y2="822.2054"/><rect fill="#EEEEEE" height="17.7037" style="stroke:#000000;stroke-width:1.3999999999999997;" width="103.3327" x="74.1193" y="811.9535"/><text fill="#000000" font-family="sans-serif" font-size="9.1" font-weight="bold" lengthAdjust="spacing" textLength="91.0044" x="78.3193" y="824.5733">Rematch proposition</text><polygon fill="#181818" points="133.4857,850.1609,126.4857,852.9609,133.4857,855.7609,130.6857,852.9609" style="stroke:#181818;stroke-width:0.6999999999999998;"/><line style="stroke:#181818;stroke-width:0.6999999999999998;" x1="129.2857" x2="225.3142" y1="852.9609" y2="852.9609"/><text fill="#000000" font-family="sans-serif" font-size="9.1" lengthAdjust="spacing" textLength="80.8914" x="137.6857" y="849.2771">REMATCH_OFFER</text><polygon fill="#181818" points="117.3857,872.0646,124.3857,874.8646,117.3857,877.6646,120.1857,874.8646" style="stroke:#181818;stroke-width:0.6999999999999998;"/><line style="stroke:#181818;stroke-width:0.6999999999999998;" x1="25.5572" x2="121.5857" y1="874.8646" y2="874.8646"/><text fill="#000000" font-family="sans-serif" font-size="9.1" lengthAdjust="spacing" textLength="21.7369" x="30.4572" y="871.1808">QUIT</text><polygon fill="#181818" points="33.2572,893.9684,26.2572,896.7684,33.2572,899.5684,30.4572,896.7684" style="stroke:#181818;stroke-width:0.6999999999999998;"/><line style="stroke:#181818;stroke-width:0.6999999999999998;" x1="29.0572" x2="125.0857" y1="896.7684" y2="896.7684"/><text fill="#000000" font-family="sans-serif" font-size="9.1" lengthAdjust="spacing" textLength="75.3372" x="37.4572" y="893.0845">REMATCH_DENY</text><polygon fill="#181818" points="217.6142,893.9684,224.6142,896.7684,217.6142,899.5684,220.4142,896.7684" style="stroke:#181818;stroke-width:0.6999999999999998;"/><line style="stroke:#181818;stroke-width:0.6999999999999998;" x1="125.7857" x2="221.8142" y1="896.7684" y2="896.7684"/><text fill="#000000" font-family="sans-serif" font-size="9.1" lengthAdjust="spacing" textLength="75.3372" x="130.6857" y="893.0845">REMATCH_DENY</text><polygon fill="#181818" points="33.2572,915.8721,26.2572,918.6721,33.2572,921.4721,30.4572,918.6721" style="stroke:#181818;stroke-width:0.6999999999999998;"/><line style="stroke:#181818;stroke-width:0.6999999999999998;" x1="29.0572" x2="125.0857" y1="918.6721" y2="918.6721"/><text fill="#000000" font-family="sans-serif" font-size="9.1" lengthAdjust="spacing" textLength="19.2131" x="37.4572" y="914.9882">END</text><polygon fill="#181818" points="217.6142,915.8721,224.6142,918.6721,217.6142,921.4721,220.4142,918.6721" style="stroke:#181818;stroke-width:0.6999999999999998;"/><line style="stroke:#181818;stroke-width:0.6999999999999998;" x1="125.7857" x2="221.8142" y1="918.6721" y2="918.6721"/><text fill="#000000" font-family="sans-serif" font-size="9.1" lengthAdjust="spacing" textLength="19.2131" x="130.6857" y="914.9882">END</text><!--SRC=[hLB1Ji904BtlLumSFA69WfYGr6ItBT0eBRObn1FPr0riBDscNJJozRQKRhk2wC7JPjwysJTlPYxIZAus52GJEv3Pbg6KPf97FAM9X8uPSrQyk0Cq1nFhoO1bxopRfuAJPQGg8mWP1epfXe6JSCbfp7TKSf60OI0KmDL3yVKGndXg-pQsNj0bL21fWuhdk4wu7FkErUOre8bBB6X1nWtSmXqooL6Y1tqOgExIc7wMBIcbkKyyx5iDWCCGcu-DH1KRlOOnSS9sMsMeSjvivhcs6rQVjbX7EWkiVrFh4brtW1HZwWI1gi27M6LFAnyv90VbH4W6ejXjmUaMv27KTm1f9YB6NdEG0gYKD7g3VfjFD3uvnR__TPw3VvgdEZjJ956ypGydrxXVUAvMz-G5uRxAPnigetNPVYfoNX-hQjItfpWq9qjlDBBzPYyw_FFH__NczKMKERM8MEIicEgQvx0gHBhDo3zuab-VjKw-MSUrzJFEJrjK0tcUjpTJaopRrPnfk6BRhhQzClm2]--></g></svg>